<?xml version="1.0" encoding="utf-8"?>
<!-- Generator: Adobe Illustrator 27.0.0, SVG Export Plug-In . SVG Version: 6.00 Build 0)  -->
<svg version="1.1" id="MicrosoftApplication" xmlns="http://www.w3.org/2000/svg" xmlns:xlink="http://www.w3.org/1999/xlink"
	 x="0px" y="0px" viewBox="0 0 435.5 170.7" style="enable-background:new 0 0 435.5 170.7;" xml:space="preserve">
<style type="text/css">
	.st0{fill:#657085;}
	.st1{fill:url(#SVGID_1_);}
</style>
<path class="st0" d="M248.1,72.1c-1.9,2-4.2,3.5-6.8,4.6c-2.6,1.1-5.6,1.7-8.9,1.7c-3,0-5.9-0.5-8.4-1.6s-4.8-2.6-6.8-4.6
	c-1.9-2-3.4-4.3-4.4-6.9c-1-2.6-1.6-5.4-1.6-8.4s0.5-5.8,1.6-8.4c1-2.6,2.5-4.9,4.4-6.9s4.2-3.5,6.8-4.6c2.6-1.1,5.4-1.7,8.4-1.7
	c3.4,0,6.3,0.6,8.8,1.7c2.5,1.1,4.7,2.6,6.6,4.6l-4.7,4.7c-1.2-1.4-2.8-2.4-4.5-3.2c-1.8-0.8-3.9-1.1-6.2-1.1c-2.1,0-4,0.4-5.7,1.1
	c-1.7,0.7-3.2,1.8-4.5,3.1c-1.3,1.3-2.2,2.9-2.9,4.8c-0.7,1.8-1,3.9-1,6.1c0,2.2,0.3,4.2,1,6.1c0.7,1.8,1.6,3.4,2.9,4.8
	c1.3,1.3,2.7,2.4,4.5,3.1c1.7,0.7,3.6,1.1,5.7,1.1c2.6,0,4.7-0.4,6.5-1.2c1.8-0.8,3.3-1.8,4.5-3.2L248.1,72.1z M261.2,34.6h-6.6
	v43.2h6.6V34.6z M282.9,78.4c-2.8,0-5.3-0.7-7.6-2c-2.3-1.3-4.1-3.1-5.4-5.4c-1.3-2.3-2-4.8-2-7.6s0.7-5.3,2-7.6
	c1.3-2.2,3.1-4,5.4-5.4c2.3-1.3,4.8-2,7.6-2c2.8,0,5.4,0.7,7.7,2c2.3,1.3,4.1,3.1,5.4,5.4c1.3,2.3,2,4.8,2,7.6s-0.7,5.3-2,7.6
	c-1.3,2.3-3.2,4.1-5.4,5.4C288.3,77.7,285.7,78.4,282.9,78.4z M278.6,70.9c1.3,0.7,2.7,1.1,4.3,1.1c1.6,0,3.1-0.4,4.4-1.1
	c1.3-0.7,2.2-1.8,2.9-3.1c0.7-1.3,1.1-2.8,1.1-4.5s-0.4-3.2-1.1-4.4c-0.7-1.3-1.7-2.3-2.9-3c-1.2-0.7-2.7-1.1-4.3-1.1
	c-1.6,0-3,0.4-4.3,1.1c-1.3,0.7-2.2,1.8-2.9,3c-0.7,1.3-1,2.8-1,4.4s0.3,3.2,1,4.5C276.4,69.1,277.4,70.2,278.6,70.9z M310,76.7
	c1.9,1.1,4.1,1.6,6.5,1.6c2.5,0,4.7-0.5,6.5-1.6c1.9-1.1,3.3-2.5,4.4-4.4c1.1-1.9,1.6-4.1,1.6-6.6V49h-6.6v16.4
	c0,2.1-0.5,3.8-1.5,4.9c-1,1.1-2.5,1.7-4.4,1.7c-1.2,0-2.3-0.3-3.2-0.8c-0.9-0.5-1.6-1.3-2-2.2c-0.5-1-0.7-2.2-0.7-3.6V49H304v16.7
	c0,2.5,0.5,4.7,1.6,6.6C306.6,74.2,308.1,75.7,310,76.7z M354.8,77c-1.7,0.9-3.7,1.4-5.9,1.4c-2.6,0-5-0.7-7.1-2s-3.8-3.1-5-5.4
	c-1.2-2.3-1.8-4.8-1.8-7.6c0-2.8,0.6-5.4,1.8-7.7c1.2-2.3,2.9-4.1,5-5.4s4.4-2,7.1-2c2.2,0,4.1,0.5,5.8,1.4c1.2,0.6,2.1,1.5,3,2.4
	V34.6h6.6v43.2h-6.6v-3.2C357,75.5,356,76.3,354.8,77z M354.3,71c1.2-0.7,2.2-1.8,2.9-3.1c0.7-1.3,1-2.8,1-4.6c0-1.7-0.3-3.2-1-4.6
	c-0.7-1.3-1.6-2.3-2.9-3.1c-1.2-0.7-2.6-1.1-4.2-1.1c-1.6,0-3.1,0.4-4.3,1.1c-1.2,0.7-2.2,1.8-2.9,3.1c-0.7,1.3-1,2.8-1,4.6
	c0,1.7,0.3,3.2,1,4.6c0.7,1.3,1.7,2.4,2.9,3.1c1.2,0.7,2.6,1.1,4.2,1.1C351.7,72.1,353.1,71.8,354.3,71z M235.8,116.9
	c-1.2-0.9-2.5-1.7-3.9-2.3c-1.4-0.6-2.8-1.1-4.3-1.6c-1.4-0.5-2.7-1-3.9-1.5c-1.2-0.5-2.1-1.2-2.8-2c-0.7-0.8-1.1-1.8-1.1-3.1
	c0-1.5,0.6-2.7,1.8-3.5c1.2-0.8,2.8-1.3,4.9-1.3c1.7,0,3.2,0.3,4.5,1c1.3,0.7,2.5,1.7,3.8,3l4.7-4.7c-1.4-1.7-3.1-3.1-5.3-4.1
	c-2.2-1.1-4.6-1.6-7.4-1.6c-2.6,0-4.9,0.5-7,1.4c-2.1,0.9-3.7,2.2-5,4c-1.2,1.7-1.8,3.9-1.8,6.3c0,2.2,0.4,3.9,1.1,5.3
	c0.7,1.4,1.7,2.5,2.9,3.4c1.2,0.9,2.5,1.6,3.9,2.2c1.4,0.6,2.8,1.1,4.3,1.6c1.4,0.5,2.7,1,3.9,1.6c1.2,0.6,2.1,1.3,2.9,2.2
	c0.7,0.9,1.1,2,1.1,3.4c0,1.7-0.7,3-2.1,4c-1.4,1-3.2,1.4-5.5,1.4c-2.5,0-4.5-0.5-6.1-1.4c-1.6-0.9-3-2.2-4.1-3.9l-4.7,4.7
	c1.8,2.3,3.9,4.1,6.2,5.3c2.3,1.2,5.1,1.8,8.5,1.8c4.5,0,8.1-1.1,10.8-3.3c2.7-2.2,4-5.2,4-8.9c0-2.2-0.4-4.1-1.1-5.6
	C238,119.1,237,117.9,235.8,116.9z M271.6,115.3c1.2,2.2,1.8,4.6,1.8,7.4c0,0.5,0,1-0.1,1.5s-0.1,1-0.3,1.6h-21.5
	c0.2,0.7,0.4,1.5,0.8,2.1c0.7,1.4,1.7,2.4,3.1,3.1c1.3,0.7,2.8,1.1,4.6,1.1c1.5,0,2.9-0.3,4.1-0.8c1.3-0.5,2.3-1.3,3.2-2.3l4.2,4.3
	c-1.4,1.6-3.1,2.9-5.1,3.7c-2,0.8-4.1,1.3-6.4,1.3c-2.9,0-5.5-0.6-7.8-1.9c-2.3-1.3-4.1-3.1-5.5-5.4c-1.3-2.3-2-4.8-2-7.7
	c0-2.8,0.7-5.4,2-7.6c1.3-2.3,3.1-4,5.4-5.4c2.3-1.3,4.8-2,7.5-2c2.7,0,5,0.6,7.1,1.9C268.8,111.5,270.4,113.2,271.6,115.3z
	 M251.6,120.4h15.3c-0.2-0.8-0.4-1.6-0.8-2.3c-0.6-1.2-1.5-2.1-2.6-2.8c-1.1-0.6-2.5-1-4-1c-1.7,0-3.1,0.4-4.4,1.1
	c-1.2,0.7-2.2,1.7-2.9,3C251.9,119.1,251.7,119.7,251.6,120.4z M297.8,109.1c-1.2-0.5-2.5-0.8-3.9-0.8c-3.3,0-5.7,1.1-7.3,3.4
	c-0.1,0.1-0.1,0.2-0.2,0.2v-3h-6.6v28.8h6.6v-16c0-2.5,0.6-4.3,1.8-5.5c1.2-1.2,2.7-1.7,4.6-1.7c0.8,0,1.6,0.1,2.2,0.4
	c0.6,0.2,1.2,0.6,1.7,1.2l4.3-4.4C300.1,110.5,299,109.7,297.8,109.1z M316.9,127.4L309,109h-7.3l13.1,28.8h3.8l13.1-28.8h-7
	L316.9,127.4z M340.3,95.8c-1.1,0-2.1,0.4-2.8,1.1c-0.7,0.8-1.1,1.7-1.1,2.8c0,1.1,0.4,2.1,1.1,2.8c0.7,0.8,1.7,1.1,2.8,1.1
	c1.2,0,2.1-0.4,2.8-1.1c0.7-0.8,1.1-1.7,1.1-2.8c0-1.1-0.4-2.1-1.1-2.8C342.4,96.1,341.4,95.8,340.3,95.8z M337,137.8h6.6V109H337
	V137.8z M361.1,115.8c1.3-0.7,2.7-1.1,4.4-1.1c1.4,0,2.7,0.2,3.9,0.8c1.2,0.5,2.2,1.3,3,2.2l4.3-4.4c-1.4-1.6-3-2.8-5-3.7
	c-1.9-0.9-4-1.3-6.3-1.3c-2.8,0-5.4,0.7-7.7,2c-2.3,1.3-4.1,3.1-5.4,5.4c-1.3,2.3-2,4.8-2,7.6c0,2.8,0.7,5.3,2,7.6
	c1.3,2.3,3.1,4.1,5.4,5.4c2.3,1.3,4.9,2,7.7,2c2.2,0,4.3-0.4,6.3-1.3c1.9-0.9,3.6-2.1,5-3.7l-4.3-4.4c-0.8,1-1.9,1.8-3,2.2
	c-1.2,0.5-2.5,0.8-3.9,0.8c-1.6,0-3.1-0.4-4.4-1.1c-1.3-0.7-2.2-1.8-2.9-3.1c-0.7-1.3-1-2.8-1-4.5c0-1.7,0.3-3.2,1-4.5
	C358.8,117.6,359.8,116.6,361.1,115.8z M407,115.3c1.2,2.2,1.8,4.6,1.8,7.4c0,0.5,0,1-0.1,1.5s-0.1,1-0.3,1.6h-21.5
	c0.2,0.7,0.4,1.5,0.8,2.1c0.7,1.4,1.7,2.4,3.1,3.1c1.3,0.7,2.8,1.1,4.6,1.1c1.5,0,2.9-0.3,4.1-0.8c1.3-0.5,2.3-1.3,3.2-2.3l4.2,4.3
	c-1.4,1.6-3.1,2.9-5.1,3.7c-2,0.8-4.1,1.3-6.4,1.3c-2.9,0-5.5-0.6-7.8-1.9c-2.3-1.3-4.1-3.1-5.5-5.4c-1.3-2.3-2-4.8-2-7.7
	c0-2.8,0.7-5.4,2-7.6c1.3-2.3,3.1-4,5.4-5.4c2.3-1.3,4.8-2,7.5-2c2.7,0,5,0.6,7.1,1.9C404.2,111.5,405.8,113.2,407,115.3z
	 M386.9,120.4h15.3c-0.2-0.8-0.4-1.6-0.8-2.3c-0.6-1.2-1.5-2.1-2.6-2.8c-1.1-0.6-2.5-1-4-1c-1.7,0-3.1,0.4-4.4,1.1
	c-1.2,0.7-2.2,1.7-2.9,3C387.3,119.1,387.1,119.7,386.9,120.4z M431.7,122.3c-1.1-0.7-2.3-1.2-3.6-1.6c-1.3-0.4-2.5-0.7-3.6-1
	c-1.1-0.3-2.1-0.7-2.8-1.1c-0.7-0.4-1.1-1.1-1.1-1.9c0-0.8,0.4-1.3,1.1-1.7c0.7-0.4,1.7-0.6,3.1-0.6c1.4,0,2.6,0.3,3.7,0.8
	c1.1,0.5,2,1.3,2.9,2.3l4.2-4.2c-1.2-1.6-2.7-2.9-4.5-3.7c-1.8-0.8-3.8-1.2-6.1-1.2c-2.2,0-4.1,0.4-5.7,1.1
	c-1.6,0.7-2.8,1.7-3.7,3.1c-0.9,1.3-1.3,2.9-1.3,4.7c0,1.7,0.4,3.1,1.1,4.2c0.7,1.1,1.7,1.9,2.8,2.6c1.1,0.6,2.3,1.1,3.6,1.5
	c1.3,0.4,2.5,0.7,3.6,1s2.1,0.8,2.8,1.2c0.7,0.5,1.1,1.2,1.1,2c0,0.8-0.4,1.5-1.1,1.9c-0.8,0.4-1.9,0.7-3.4,0.7
	c-1.6,0-3.1-0.3-4.4-0.9c-1.3-0.6-2.5-1.5-3.5-2.6l-4.2,4.2c0.9,1.1,2,2.1,3.2,2.8c1.2,0.8,2.6,1.4,4.1,1.8c1.5,0.4,3,0.6,4.6,0.6
	c3.4,0,6-0.8,8-2.5c2-1.6,2.9-3.9,2.9-6.7c0-1.8-0.4-3.2-1.1-4.3C433.7,123.9,432.8,123,431.7,122.3z"/>
<linearGradient id="SVGID_1_" gradientUnits="userSpaceOnUse" x1="90.2667" y1="170.7" x2="90.2667" y2="-9.094947e-13">
	<stop  offset="0" style="stop-color:#0E4EB0"/>
	<stop  offset="0.1588" style="stop-color:#124EB1"/>
	<stop  offset="0.3234" style="stop-color:#1F4FB5"/>
	<stop  offset="0.4907" style="stop-color:#3351BC"/>
	<stop  offset="0.6599" style="stop-color:#5054C6"/>
	<stop  offset="0.8299" style="stop-color:#7657D2"/>
	<stop  offset="1" style="stop-color:#A35BE1"/>
</linearGradient>
<path class="st1" d="M169.8,78.8c-4.9,0-9,3.3-10.3,7.8h-13.6c-1.8-3.4-4.5-6.3-7.9-8.3c0.9-7.2-4.8-13.8-11.3-14.6
	c-1-5.6-3.7-10.5-7.6-14.3c0-0.1,0-0.2,0-0.2V35.5h37c1.5,0,2.7-1.2,2.7-2.7V21.2c4.8-1.1,8.3-5.4,8.3-10.4
	c0-5.9-4.8-10.7-10.7-10.7s-10.7,4.8-10.7,10.7c0,4.9,3.3,9,7.8,10.3v9.1h-37c-1.5,0-2.7,1.2-2.7,2.7v12.4c-4-2.4-8.8-3.8-13.8-3.8
	c-2.1,0-4.2,0.3-6.2,0.8V31.4C98.5,30.2,102,26,102,21c0-5.9-4.8-10.7-10.7-10.7S80.5,15.1,80.5,21c0,5,3.4,9.1,8,10.3v12.9
	c-7.1,3.5-12.4,9.9-14.2,17.8c-2.6-0.7-5.3-0.8-8-0.4V32.8c0-1.5-1.2-2.7-2.7-2.7h-37V21c4.5-1.3,7.8-5.4,7.8-10.3
	C34.4,4.8,29.6,0,23.7,0S12.9,4.8,12.9,10.7c0,5.1,3.6,9.3,8.3,10.4v11.6c0,1.5,1.2,2.7,2.7,2.7h37v28c-4.7,2.5-8.2,6.9-9.3,12.3
	c-6.2,0.2-13.1,4.1-17,10.8H21c-1.3-4.5-5.4-7.8-10.3-7.8C4.8,78.8,0,83.6,0,89.5c0,5.9,4.8,10.7,10.7,10.7c5.1,0,9.4-3.6,10.4-8.3
	h11.2c-0.4,1.8-0.7,3.6-0.7,5.4c0.1,11.6,9.6,21.1,21.3,21.1c0,0,0.2,0,0.2,0l7.8-0.1v16.9h-37c-1.5,0-2.7,1.2-2.7,2.7v11.6
	c-4.8,1.1-8.3,5.4-8.3,10.4c0,5.9,4.8,10.7,10.7,10.7s10.7-4.8,10.7-10.7c0-4.9-3.3-9-7.8-10.3v-9.1h37c1.5,0,2.7-1.2,2.7-2.7v-19.6
	l22.2-0.2v21.3c-4.6,1.2-8,5.4-8,10.3c0,5.9,4.8,10.7,10.7,10.7s10.7-4.8,10.7-10.7c0-5-3.5-9.2-8.2-10.4v-21.3l20-0.2v20
	c0,1.5,1.2,2.7,2.7,2.7h37v9.1c-4.5,1.3-7.8,5.4-7.8,10.3c0,5.9,4.8,10.7,10.7,10.7s10.7-4.8,10.7-10.7c0-5.1-3.6-9.3-8.3-10.4
	v-11.6c0-1.5-1.2-2.7-2.7-2.7h-37v-17.4l8.1-0.1c11.8-0.1,21.2-9.7,21.1-21.5c0-1.5-0.2-3-0.5-4.4h11.5c1.1,4.8,5.4,8.3,10.4,8.3
	c5.9,0,10.7-4.8,10.7-10.7S175.7,78.8,169.8,78.8z M151.1,10.7c0-3,2.4-5.4,5.4-5.4s5.4,2.4,5.4,5.4s-2.4,5.4-5.4,5.4
	S151.1,13.7,151.1,10.7z M23.7,16.1c-3,0-5.4-2.4-5.4-5.4s2.4-5.4,5.4-5.4S29,7.8,29,10.7S26.6,16.1,23.7,16.1z M10.7,94.9
	c-3,0-5.4-2.4-5.4-5.4c0-3,2.4-5.4,5.4-5.4c2.9,0,5.2,2.2,5.3,5.1c0,0,0,0,0,0c0,0,0,0,0,0c0,0.1,0,0.2,0,0.2
	C16.1,92.5,13.7,94.9,10.7,94.9z M29,160c0,3-2.4,5.4-5.4,5.4s-5.4-2.4-5.4-5.4s2.4-5.4,5.4-5.4S29,157,29,160z M156.5,154.6
	c3,0,5.4,2.4,5.4,5.4s-2.4,5.4-5.4,5.4s-5.4-2.4-5.4-5.4S153.5,154.6,156.5,154.6z M85.9,21c0-3,2.4-5.4,5.4-5.4
	c3,0,5.4,2.4,5.4,5.4s-2.4,5.4-5.4,5.4C88.3,26.3,85.9,23.9,85.9,21z M96.7,149.7c0,3-2.4,5.4-5.4,5.4s-5.4-2.4-5.4-5.4
	s2.4-5.4,5.4-5.4S96.7,146.8,96.7,149.7z M127.3,112.4c-18.3,0.2-55.3,0.5-74.2,0.6c-0.1,0-0.2,0-0.2,0c0,0,0,0,0.1,0
	c-8.7,0-15.8-7.1-15.9-15.8c-0.1-9.3,8.1-16.1,15-16.1c0.6,0,4.3,0.8,4.5-2.4c0.6-9.1,10.2-14.8,18.5-10.7c1.7,0.8,3.7-0.3,3.9-2.1
	c1.1-10.8,10.2-19,21.3-19.1c11.1,0,20.5,8.7,21.4,19.8c0.1,1.6,1.6,2.7,3.1,2.4c4.1-0.7,9.3,4.5,7.6,9.8c-0.4,1.3,0.2,2.7,1.4,3.2
	c5.5,2.6,9.1,8.2,9.2,14.3C143.1,105.2,136.1,112.3,127.3,112.4z M169.8,94.9c-3,0-5.4-2.4-5.4-5.4c0-0.1,0-0.2,0-0.2c0,0,0,0,0,0
	c0,0,0,0,0,0c0.2-2.8,2.5-5.1,5.3-5.1c3,0,5.4,2.4,5.4,5.4S172.8,94.9,169.8,94.9z M93.3,99.4c-3.9,0-3.9,5.9,0,5.9
	c1.6,0,2.9-1.3,2.9-2.9S94.9,99.4,93.3,99.4z M74.5,79.6c-1,1.1-0.9,2.8,0.2,3.8c1.1,1,2.8,0.9,3.8-0.2c8.2-8.9,21.4-8.9,29.6,0
	c1,1.1,2.7,1.2,3.8,0.2c1.1-1,1.2-2.7,0.2-3.8C101.7,68.4,84.9,68.4,74.5,79.6z M80.6,86.3c-1,1.1-0.9,2.8,0.2,3.8
	c1.1,1,2.8,0.9,3.8-0.2c4.8-5.3,12.6-5.2,17.4,0c1,1.1,2.7,1.2,3.8,0.2c1.1-1,1.2-2.7,0.2-3.8C99.1,78.8,87.6,78.6,80.6,86.3z
	 M86.7,92.9c-1,1.1-0.9,2.8,0.2,3.8c1.1,1,2.8,0.9,3.8-0.2c1.4-1.5,3.8-1.5,5.2,0c1,1.1,2.7,1.2,3.8,0.2c1.1-1,1.2-2.7,0.2-3.8
	C96.4,89.1,90.2,89.1,86.7,92.9z"/>
</svg>
