<?xml version="1.0" encoding="utf-8"?>
<!-- Generator: Adobe Illustrator 27.0.0, SVG Export Plug-In . SVG Version: 6.00 Build 0)  -->
<svg version="1.1" id="custom_x5F_development" xmlns="http://www.w3.org/2000/svg" xmlns:xlink="http://www.w3.org/1999/xlink"
	 x="0px" y="0px" viewBox="0 0 578.8 170.7" style="enable-background:new 0 0 578.8 170.7;" xml:space="preserve">
<style type="text/css">
	.st0{fill:#657085;}
	.st1{fill:url(#SVGID_1_);}
</style>
<path class="st0" d="M217.2,72.1c-1.9-2-3.4-4.3-4.4-6.9c-1-2.6-1.6-5.4-1.6-8.4s0.5-5.8,1.6-8.4c1-2.6,2.5-4.9,4.4-6.9
	s4.2-3.5,6.8-4.6c2.6-1.1,5.4-1.7,8.4-1.7c3.4,0,6.3,0.6,8.8,1.7c2.5,1.1,4.7,2.6,6.6,4.6l-4.7,4.7c-1.2-1.4-2.8-2.4-4.5-3.2
	c-1.8-0.8-3.9-1.1-6.2-1.1c-2.1,0-4,0.4-5.7,1.1c-1.7,0.7-3.2,1.8-4.5,3.1c-1.3,1.3-2.2,2.9-2.9,4.8c-0.7,1.8-1,3.9-1,6.1
	c0,2.2,0.3,4.2,1,6.1c0.7,1.8,1.6,3.4,2.9,4.8c1.3,1.3,2.7,2.4,4.5,3.1c1.7,0.7,3.6,1.1,5.7,1.1c2.6,0,4.7-0.4,6.5-1.2
	c1.8-0.8,3.3-1.8,4.5-3.2l4.7,4.7c-1.9,2-4.2,3.5-6.8,4.6c-2.6,1.1-5.6,1.7-8.9,1.7c-3,0-5.9-0.5-8.4-1.6S219.1,74.1,217.2,72.1z
	 M259.9,76.7c1.9,1.1,4.1,1.6,6.5,1.6c2.5,0,4.7-0.5,6.5-1.6c1.9-1.1,3.3-2.5,4.4-4.4c1.1-1.9,1.6-4.1,1.6-6.6V49h-6.6v16.4
	c0,2.1-0.5,3.8-1.5,4.9c-1,1.1-2.5,1.7-4.4,1.7c-1.2,0-2.3-0.3-3.2-0.8c-0.9-0.5-1.6-1.3-2-2.2c-0.5-1-0.7-2.2-0.7-3.6V49h-6.6v16.7
	c0,2.5,0.5,4.7,1.6,6.6C256.5,74.2,258,75.7,259.9,76.7z M291.6,77.7c1.5,0.4,3,0.6,4.6,0.6c3.4,0,6-0.8,8-2.5
	c2-1.6,2.9-3.9,2.9-6.7c0-1.8-0.4-3.2-1.1-4.3c-0.7-1.1-1.6-2-2.8-2.6c-1.1-0.7-2.3-1.2-3.6-1.6c-1.3-0.4-2.5-0.7-3.6-1
	c-1.1-0.3-2.1-0.7-2.8-1.1c-0.7-0.4-1.1-1.1-1.1-1.9c0-0.8,0.4-1.3,1.1-1.7c0.7-0.4,1.7-0.6,3.1-0.6c1.4,0,2.6,0.3,3.7,0.8
	c1.1,0.5,2,1.3,2.9,2.3l4.2-4.2c-1.2-1.6-2.7-2.9-4.5-3.7c-1.8-0.8-3.8-1.2-6.1-1.2c-2.2,0-4.1,0.4-5.7,1.1
	c-1.6,0.7-2.8,1.7-3.7,3.1c-0.9,1.3-1.3,2.9-1.3,4.7c0,1.7,0.4,3.1,1.1,4.2c0.7,1.1,1.7,1.9,2.8,2.6c1.1,0.6,2.3,1.1,3.6,1.5
	c1.3,0.4,2.5,0.7,3.6,1s2.1,0.8,2.8,1.2c0.7,0.5,1.1,1.2,1.1,2c0,0.8-0.4,1.5-1.1,1.9c-0.8,0.4-1.9,0.7-3.4,0.7
	c-1.6,0-3.1-0.3-4.4-0.9c-1.3-0.6-2.5-1.5-3.5-2.6l-4.2,4.2c0.9,1.1,2,2.1,3.2,2.8C288.8,76.7,290.1,77.3,291.6,77.7z M324.8,77.8
	V55h6.9v-6h-6.9V37h-6.6v12h-6.9v6h6.9v22.8H324.8z M363.2,55.7c1.3,2.3,2,4.8,2,7.6s-0.7,5.3-2,7.6c-1.3,2.3-3.2,4.1-5.4,5.4
	c-2.3,1.3-4.8,2-7.7,2c-2.8,0-5.3-0.7-7.6-2c-2.3-1.3-4.1-3.1-5.4-5.4c-1.3-2.3-2-4.8-2-7.6s0.7-5.3,2-7.6c1.3-2.2,3.1-4,5.4-5.4
	c2.3-1.3,4.8-2,7.6-2c2.8,0,5.4,0.7,7.7,2C360,51.7,361.8,53.5,363.2,55.7z M358.4,63.3c0-1.7-0.4-3.2-1.1-4.4
	c-0.7-1.3-1.7-2.3-2.9-3c-1.2-0.7-2.7-1.1-4.3-1.1c-1.6,0-3,0.4-4.3,1.1c-1.3,0.7-2.2,1.8-2.9,3c-0.7,1.3-1,2.8-1,4.4s0.3,3.2,1,4.5
	c0.7,1.3,1.7,2.4,2.9,3.1c1.3,0.7,2.7,1.1,4.3,1.1c1.6,0,3.1-0.4,4.4-1.1c1.3-0.7,2.2-1.8,2.9-3.1C358,66.5,358.4,65,358.4,63.3z
	 M410.1,60.6v17.2h6.6V59.2c0-2.2-0.5-4.2-1.5-5.8c-1-1.6-2.3-2.8-4-3.7c-1.7-0.9-3.6-1.3-5.6-1.3c-2,0-3.9,0.5-5.6,1.4
	c-1.6,0.8-2.9,2-4,3.5c-0.9-1.5-2.2-2.7-3.8-3.5c-1.6-0.9-3.5-1.3-5.5-1.3s-3.9,0.5-5.5,1.4c-1.1,0.6-2,1.3-2.8,2.2v-3h-6.6v28.8
	h6.6V60.6c0-1.3,0.3-2.4,0.8-3.3c0.6-0.9,1.3-1.6,2.2-2.1c0.9-0.5,2-0.7,3.2-0.7c1.8,0,3.2,0.5,4.4,1.6c1.2,1.1,1.8,2.5,1.8,4.5
	v17.2h6.6V60.6c0-1.3,0.3-2.4,0.8-3.3c0.6-0.9,1.3-1.6,2.3-2.1s2-0.7,3.2-0.7c1.8,0,3.2,0.5,4.4,1.6
	C409.5,57.2,410.1,58.7,410.1,60.6z M249.1,108.5c1.1,2.5,1.6,5.3,1.6,8.3c0,3-0.5,5.7-1.6,8.3c-1.1,2.6-2.6,4.8-4.5,6.7
	c-1.9,1.9-4.2,3.4-6.8,4.4c-2.6,1.1-5.4,1.6-8.4,1.6h-9.2H218h-4.7v-42h4.7h2.2h9.1c3,0,5.9,0.5,8.5,1.6c2.6,1.1,4.9,2.5,6.8,4.4
	C246.5,103.7,248,105.9,249.1,108.5z M243.6,116.7c0-2.9-0.6-5.4-1.9-7.6c-1.2-2.2-3-3.9-5.1-5.2c-2.2-1.2-4.7-1.9-7.5-1.9h-8.9
	v29.4h8.9c2.9,0,5.4-0.6,7.6-1.9c2.2-1.2,3.9-3,5.1-5.2C243,122.2,243.6,119.6,243.6,116.7z M283,115.3c1.2,2.2,1.8,4.6,1.8,7.4
	c0,0.5,0,1-0.1,1.5s-0.1,1-0.3,1.6h-21.5c0.2,0.7,0.4,1.5,0.8,2.1c0.7,1.4,1.7,2.4,3.1,3.1c1.3,0.7,2.8,1.1,4.6,1.1
	c1.5,0,2.9-0.3,4.1-0.8c1.3-0.5,2.3-1.3,3.2-2.3l4.2,4.3c-1.4,1.6-3.1,2.9-5.1,3.7c-2,0.8-4.1,1.3-6.4,1.3c-2.9,0-5.5-0.6-7.8-1.9
	c-2.3-1.3-4.1-3.1-5.5-5.4c-1.3-2.3-2-4.8-2-7.7c0-2.8,0.7-5.4,2-7.6c1.3-2.3,3.1-4,5.4-5.4c2.3-1.3,4.8-2,7.5-2
	c2.7,0,5,0.6,7.1,1.9C280.2,111.5,281.8,113.2,283,115.3z M263,120.4h15.3c-0.2-0.8-0.4-1.6-0.8-2.3c-0.6-1.2-1.5-2.1-2.6-2.8
	c-1.1-0.6-2.5-1-4-1c-1.7,0-3.1,0.4-4.4,1.1c-1.2,0.7-2.2,1.7-2.9,3C263.3,119.1,263.1,119.7,263,120.4z M302.5,127.4l-7.9-18.4
	h-7.3l13.1,28.8h3.8l13.1-28.8h-7L302.5,127.4z M346.6,115.3c1.2,2.2,1.8,4.6,1.8,7.4c0,0.5,0,1-0.1,1.5s-0.1,1-0.3,1.6h-21.5
	c0.2,0.7,0.4,1.5,0.8,2.1c0.7,1.4,1.7,2.4,3.1,3.1c1.3,0.7,2.8,1.1,4.6,1.1c1.5,0,2.9-0.3,4.1-0.8c1.3-0.5,2.3-1.3,3.2-2.3l4.2,4.3
	c-1.4,1.6-3.1,2.9-5.1,3.7c-2,0.8-4.1,1.3-6.4,1.3c-2.9,0-5.5-0.6-7.8-1.9c-2.3-1.3-4.1-3.1-5.5-5.4c-1.3-2.3-2-4.8-2-7.7
	c0-2.8,0.7-5.4,2-7.6c1.3-2.3,3.1-4,5.4-5.4c2.3-1.3,4.8-2,7.5-2c2.7,0,5,0.6,7.1,1.9C343.8,111.5,345.4,113.2,346.6,115.3z
	 M326.6,120.4h15.3c-0.2-0.8-0.4-1.6-0.8-2.3c-0.6-1.2-1.5-2.1-2.6-2.8c-1.1-0.6-2.5-1-4-1c-1.7,0-3.1,0.4-4.4,1.1
	c-1.2,0.7-2.2,1.7-2.9,3C326.9,119.1,326.7,119.7,326.6,120.4z M354.8,137.8h6.6V94.6h-6.6V137.8z M396.3,115.7c1.3,2.3,2,4.8,2,7.6
	s-0.7,5.3-2,7.6c-1.3,2.3-3.2,4.1-5.4,5.4c-2.3,1.3-4.8,2-7.7,2c-2.8,0-5.3-0.7-7.6-2c-2.3-1.3-4.1-3.1-5.4-5.4
	c-1.3-2.3-2-4.8-2-7.6s0.7-5.3,2-7.6c1.3-2.2,3.1-4,5.4-5.4c2.3-1.3,4.8-2,7.6-2c2.8,0,5.4,0.7,7.7,2
	C393.1,111.7,394.9,113.5,396.3,115.7z M391.5,123.3c0-1.7-0.4-3.2-1.1-4.4c-0.7-1.3-1.7-2.3-2.9-3c-1.2-0.7-2.7-1.1-4.3-1.1
	c-1.6,0-3,0.4-4.3,1.1c-1.3,0.7-2.2,1.8-2.9,3c-0.7,1.3-1,2.8-1,4.4s0.3,3.2,1,4.5c0.7,1.3,1.7,2.4,2.9,3.1c1.3,0.7,2.7,1.1,4.3,1.1
	c1.6,0,3.1-0.4,4.4-1.1c1.3-0.7,2.2-1.8,2.9-3.1C391.2,126.5,391.5,125,391.5,123.3z M432.4,115.8c1.2,2.3,1.8,4.8,1.8,7.7
	c0,2.8-0.6,5.3-1.8,7.6c-1.2,2.3-2.9,4-5,5.4s-4.5,2-7,2c-2.2,0-4.2-0.5-5.9-1.4c-1.2-0.6-2.1-1.4-2.9-2.4v15.2h-6.6V109h6.6v3.2
	c0.8-1,1.8-1.8,3-2.4c1.7-0.9,3.7-1.4,5.8-1.4c2.6,0,4.9,0.7,7,2S431.2,113.5,432.4,115.8z M427.4,123.4c0-1.7-0.4-3.2-1.1-4.6
	c-0.7-1.3-1.7-2.3-2.9-3.1c-1.2-0.7-2.6-1.1-4.2-1.1c-1.6,0-3,0.4-4.3,1.1c-1.2,0.7-2.2,1.8-2.9,3.1c-0.7,1.3-1,2.8-1,4.6
	c0,1.7,0.3,3.2,1,4.6c0.7,1.3,1.6,2.4,2.9,3.1c1.2,0.7,2.7,1.1,4.3,1.1c1.6,0,3-0.4,4.2-1.1c1.2-0.7,2.2-1.8,2.9-3.1
	C427.1,126.6,427.4,125.1,427.4,123.4z M480.3,109.7c-1.7-0.9-3.6-1.3-5.6-1.3c-2,0-3.9,0.5-5.6,1.4c-1.6,0.8-2.9,2-4,3.5
	c-0.9-1.5-2.2-2.7-3.8-3.5c-1.6-0.9-3.5-1.3-5.5-1.3s-3.9,0.5-5.5,1.4c-1.1,0.6-2,1.3-2.8,2.2v-3h-6.6v28.8h6.6v-17.2
	c0-1.3,0.3-2.4,0.8-3.3c0.6-0.9,1.3-1.6,2.2-2.1c0.9-0.5,2-0.7,3.2-0.7c1.8,0,3.2,0.5,4.4,1.6c1.2,1.1,1.8,2.5,1.8,4.5v17.2h6.6
	v-17.2c0-1.3,0.3-2.4,0.8-3.3c0.6-0.9,1.3-1.6,2.3-2.1c1-0.5,2-0.7,3.2-0.7c1.8,0,3.2,0.5,4.4,1.6c1.2,1.1,1.8,2.5,1.8,4.5v17.2h6.6
	v-18.6c0-2.2-0.5-4.2-1.5-5.8C483.3,111.8,482,110.6,480.3,109.7z M518.8,115.3c1.2,2.2,1.8,4.6,1.8,7.4c0,0.5,0,1-0.1,1.5
	c-0.1,0.5-0.2,1-0.3,1.6h-21.5c0.2,0.7,0.4,1.5,0.8,2.1c0.7,1.4,1.7,2.4,3.1,3.1c1.3,0.7,2.8,1.1,4.6,1.1c1.5,0,2.8-0.3,4.1-0.8
	c1.3-0.5,2.3-1.3,3.2-2.3l4.2,4.3c-1.4,1.6-3.1,2.9-5.1,3.7c-2,0.8-4.1,1.3-6.4,1.3c-2.9,0-5.5-0.6-7.8-1.9
	c-2.3-1.3-4.1-3.1-5.5-5.4c-1.3-2.3-2-4.8-2-7.7c0-2.8,0.7-5.4,2-7.6c1.3-2.3,3.1-4,5.4-5.4s4.8-2,7.5-2c2.7,0,5,0.6,7.1,1.9
	C516,111.5,517.6,113.2,518.8,115.3z M498.8,120.4h15.3c-0.2-0.8-0.4-1.6-0.8-2.3c-0.6-1.2-1.5-2.1-2.5-2.8c-1.1-0.6-2.5-1-4-1
	c-1.7,0-3.1,0.4-4.4,1.1c-1.2,0.7-2.2,1.7-2.9,3C499.1,119.1,498.9,119.7,498.8,120.4z M548,110c-1.7-1.1-3.6-1.7-5.8-1.7
	c-2.1,0-4,0.5-5.7,1.5c-1.1,0.6-2.1,1.5-2.9,2.4V109H527v28.8h6.6v-16.6c0-1.3,0.3-2.4,0.8-3.4c0.6-1,1.3-1.8,2.3-2.3
	c1-0.6,2.1-0.8,3.4-0.8c1.9,0,3.5,0.6,4.7,1.9c1.2,1.2,1.8,2.8,1.8,4.7v16.6h6.6v-18.1c0-1.9-0.5-3.7-1.4-5.4S549.7,111.1,548,110z
	 M578.8,109h-6.9V97h-6.6v12h-6.9v6h6.9v22.8h6.6V115h6.9V109z"/>
<linearGradient id="SVGID_1_" gradientUnits="userSpaceOnUse" x1="85.2646" y1="170.7" x2="85.2646" y2="-9.094947e-13">
	<stop  offset="0" style="stop-color:#0E4EB0"/>
	<stop  offset="0.1588" style="stop-color:#124EB1"/>
	<stop  offset="0.3234" style="stop-color:#1F4FB5"/>
	<stop  offset="0.4907" style="stop-color:#3351BC"/>
	<stop  offset="0.6599" style="stop-color:#5054C6"/>
	<stop  offset="0.8299" style="stop-color:#7657D2"/>
	<stop  offset="1" style="stop-color:#A35BE1"/>
</linearGradient>
<path class="st1" d="M159.3,45.1h-32.1V8.3c0-4.6-3.7-8.3-8.3-8.3H51.7c-4.6,0-8.3,3.7-8.3,8.3v36.8H11.2C5,45.1,0,50.2,0,56.3v87.3
	c0,6.2,5,11.2,11.2,11.2h59.5l-4.1,11.4H50.9c-1.2,0-2.2,1-2.2,2.2c0,1.2,1,2.2,2.2,2.2h70.2c1.2,0,2.2-1,2.2-2.2
	c0-1.2-1-2.2-2.2-2.2h-15.7l-4.1-11.4h58.1c6.2,0,11.2-5,11.2-11.2V56.3C170.5,50.2,165.5,45.1,159.3,45.1z M51.7,69.7
	c-2.2,0-3.9-1.8-3.9-3.9v-38h75v38c0,2.2-1.8,3.9-3.9,3.9L51.7,69.7L51.7,69.7z M51.7,4.4h67.2c2.2,0,3.9,1.8,3.9,3.9v15.1h-75V8.3
	C47.8,6.2,49.5,4.4,51.7,4.4z M11.2,49.6h32.1v16.3c0,4.6,3.7,8.3,8.3,8.3h3.7v25.8h-17c-1-4.9-5.4-8.6-10.6-8.6
	c-6,0-10.8,4.9-10.8,10.8c0,6,4.9,10.8,10.8,10.8c5.2,0,9.6-3.7,10.6-8.6h19.2c1.2,0,2.2-1,2.2-2.2v-28h11.4v16.2
	c-4.3,1-7.5,4.9-7.5,9.5c0,5.4,4.4,9.7,9.7,9.7s9.7-4.4,9.7-9.7c0-4.6-3.2-8.5-7.5-9.5V74.2h19.3v31.6c-4.3,1-7.5,4.9-7.5,9.5
	c0,5.4,4.4,9.7,9.7,9.7s9.7-4.4,9.7-9.7c0-4.6-3.2-8.5-7.5-9.5V74.2h11.4v28c0,1.2,1,2.2,2.2,2.2h19.2c1,4.9,5.4,8.6,10.6,8.6
	c6,0,10.8-4.9,10.8-10.8c0-6-4.9-10.8-10.8-10.8c-5.2,0-9.6,3.7-10.6,8.6h-17V74.2h3.7c4.6,0,8.3-3.7,8.3-8.3V49.6h32.1
	c3.7,0,6.8,3,6.8,6.8v77.6H4.4V56.3C4.4,52.6,7.5,49.6,11.2,49.6z M34.2,102.1c0,3.5-2.9,6.4-6.4,6.4c-3.5,0-6.4-2.9-6.4-6.4
	c0-3.5,2.9-6.4,6.4-6.4C31.3,95.8,34.2,98.6,34.2,102.1z M73.4,94.5c2.9,0,5.3,2.4,5.3,5.3c0,2.9-2.4,5.3-5.3,5.3
	c-2.9,0-5.3-2.4-5.3-5.3C68.1,96.9,70.5,94.5,73.4,94.5z M97.1,110c2.9,0,5.3,2.4,5.3,5.3c0,2.9-2.4,5.3-5.3,5.3
	c-2.9,0-5.3-2.4-5.3-5.3C91.8,112.3,94.2,110,97.1,110z M136.3,102.1c0-3.5,2.9-6.4,6.4-6.4c3.5,0,6.4,2.9,6.4,6.4
	c0,3.5-2.9,6.4-6.4,6.4C139.2,108.5,136.3,105.7,136.3,102.1z M100.7,166.3H71.3l4.1-11.4h21.1L100.7,166.3z M159.3,150.4H11.2
	c-3.7,0-6.8-3-6.8-6.8v-5.3h161.7v5.3C166.1,147.4,163,150.4,159.3,150.4z M74.7,40.9l-7.3,7.9l7.3,7.9c0.8,0.9,0.8,2.3-0.1,3.1
	c-0.4,0.4-1,0.6-1.5,0.6c-0.6,0-1.2-0.2-1.6-0.7l-8.7-9.4c-0.8-0.8-0.8-2.2,0-3l8.7-9.4c0.8-0.9,2.2-1,3.1-0.1
	C75.5,38.6,75.5,40,74.7,40.9z M107.8,47.3c0.8,0.8,0.8,2.2,0,3l-8.7,9.4c-0.4,0.5-1,0.7-1.6,0.7c-0.5,0-1.1-0.2-1.5-0.6
	c-0.9-0.8-1-2.2-0.1-3.1l7.3-7.9l-7.3-7.9C95,40,95.1,38.6,96,37.8c0.9-0.8,2.3-0.8,3.1,0.1L107.8,47.3z M91.1,37.7l-7.5,23.6
	c-0.3,0.9-1.2,1.5-2.1,1.5c-0.2,0-0.4,0-0.7-0.1c-1.2-0.4-1.8-1.6-1.4-2.8l7.5-23.6c0.4-1.2,1.6-1.8,2.8-1.4
	C90.8,35.2,91.5,36.5,91.1,37.7z M58.6,20.3c3.5,0,6.4-2.9,6.4-6.4s-2.9-6.4-6.4-6.4c-3.5,0-6.4,2.9-6.4,6.4S55,20.3,58.6,20.3z
	 M58.6,12c1.1,0,1.9,0.9,1.9,1.9s-0.9,1.9-1.9,1.9c-1.1,0-1.9-0.9-1.9-1.9S57.5,12,58.6,12z M73.7,20.3c3.5,0,6.4-2.9,6.4-6.4
	s-2.9-6.4-6.4-6.4s-6.4,2.9-6.4,6.4S70.2,20.3,73.7,20.3z M73.7,12c1.1,0,1.9,0.9,1.9,1.9s-0.9,1.9-1.9,1.9c-1.1,0-1.9-0.9-1.9-1.9
	S72.6,12,73.7,12z M88.9,20.3c3.5,0,6.4-2.9,6.4-6.4s-2.9-6.4-6.4-6.4s-6.4,2.9-6.4,6.4S85.4,20.3,88.9,20.3z M88.9,12
	c1.1,0,1.9,0.9,1.9,1.9s-0.9,1.9-1.9,1.9s-1.9-0.9-1.9-1.9S87.8,12,88.9,12z"/>
</svg>
