<?xml version="1.0" encoding="utf-8"?>
<!-- Generator: Adobe Illustrator 27.0.0, SVG Export Plug-In . SVG Version: 6.00 Build 0)  -->
<svg version="1.1" id="MicrosoftApplication" xmlns="http://www.w3.org/2000/svg" xmlns:xlink="http://www.w3.org/1999/xlink"
	 x="0px" y="0px" viewBox="0 0 594.9 170.7" style="enable-background:new 0 0 594.9 170.7;" xml:space="preserve">
<style type="text/css">
	.st0{fill:#657085;}
	.st1{fill:url(#SVGID_1_);}
</style>
<path class="st0" d="M220.2,77.8h-6.9v-42h6.9V77.8z M249.4,61.1v16.6h6.6V59.7c0-1.9-0.5-3.7-1.4-5.4s-2.3-3.2-4-4.3
	c-1.7-1.1-3.6-1.7-5.8-1.7c-2.1,0-4,0.5-5.7,1.5c-1.1,0.6-2.1,1.5-2.9,2.4V49h-6.6v28.8h6.6V61.1c0-1.3,0.3-2.4,0.8-3.4
	c0.6-1,1.3-1.8,2.3-2.3c1-0.6,2.1-0.8,3.4-0.8c1.9,0,3.5,0.6,4.7,1.9C248.8,57.6,249.4,59.2,249.4,61.1z M282.8,55v-6h-8.7v-3.8
	c0-1.6,0.4-2.8,1.3-3.7c0.9-0.9,2.1-1.3,3.7-1.3c0.9,0,1.6,0.1,2.2,0.4c0.6,0.3,1.1,0.7,1.6,1.1l4.3-4.3c-1.1-1.1-2.2-2-3.5-2.6
	c-1.2-0.6-2.7-0.9-4.5-0.9c-2.3,0-4.3,0.5-6,1.4c-1.7,1-3.1,2.3-4.1,4c-1,1.7-1.5,3.6-1.5,5.8V49h-6.9v6h6.9v22.8h6.6V55H282.8z
	 M305.8,49.1c-1.2-0.5-2.5-0.8-3.9-0.8c-3.3,0-5.7,1.1-7.3,3.4c-0.1,0.1-0.1,0.2-0.2,0.2v-3h-6.6v28.8h6.6v-16
	c0-2.5,0.6-4.3,1.8-5.5c1.2-1.2,2.7-1.7,4.6-1.7c0.8,0,1.6,0.1,2.2,0.4c0.6,0.2,1.2,0.6,1.7,1.2l4.3-4.4
	C308.1,50.5,307,49.7,305.8,49.1z M317.6,76.4c-2.1-1.3-3.8-3.1-5-5.4c-1.2-2.3-1.8-4.8-1.8-7.6c0-2.8,0.6-5.4,1.8-7.7
	c1.2-2.3,2.9-4.1,5-5.4s4.4-2,7.1-2c2.2,0,4.1,0.5,5.8,1.4c1.2,0.6,2.1,1.5,3,2.4V49h6.6v28.8h-6.6v-3.2c-0.8,0.9-1.8,1.7-2.9,2.4
	c-1.7,0.9-3.7,1.4-5.9,1.4C322.1,78.4,319.7,77.7,317.6,76.4z M317.6,63.4c0,1.7,0.3,3.2,1,4.6c0.7,1.3,1.7,2.4,2.9,3.1
	c1.2,0.7,2.6,1.1,4.2,1.1c2.4,0,4.4-0.8,5.9-2.5c1.5-1.6,2.2-3.7,2.2-6.3c0-1.7-0.3-3.2-1-4.6c-0.7-1.3-1.6-2.3-2.9-3.1
	c-1.2-0.7-2.7-1.1-4.3-1.1c-1.6,0-3,0.4-4.2,1.1c-1.2,0.7-2.2,1.8-2.9,3.1C317.9,60.1,317.6,61.6,317.6,63.4z M353.4,77.7
	c1.5,0.4,3,0.6,4.6,0.6c3.4,0,6-0.8,8-2.5c2-1.6,2.9-3.9,2.9-6.7c0-1.8-0.4-3.2-1.1-4.3c-0.7-1.1-1.6-2-2.8-2.6
	c-1.1-0.7-2.3-1.2-3.6-1.6c-1.3-0.4-2.5-0.7-3.6-1c-1.1-0.3-2.1-0.7-2.8-1.1c-0.7-0.4-1.1-1.1-1.1-1.9c0-0.8,0.4-1.3,1.1-1.7
	c0.7-0.4,1.7-0.6,3.1-0.6c1.4,0,2.6,0.3,3.7,0.8c1.1,0.5,2,1.3,2.9,2.3l4.2-4.2c-1.2-1.6-2.7-2.9-4.5-3.7c-1.8-0.8-3.8-1.2-6.1-1.2
	c-2.2,0-4.1,0.4-5.7,1.1c-1.6,0.7-2.8,1.7-3.7,3.1c-0.9,1.3-1.3,2.9-1.3,4.7c0,1.7,0.4,3.1,1.1,4.2c0.7,1.1,1.7,1.9,2.8,2.6
	c1.1,0.6,2.3,1.1,3.6,1.5c1.3,0.4,2.5,0.7,3.6,1s2.1,0.8,2.8,1.2c0.7,0.5,1.1,1.2,1.1,2c0,0.8-0.4,1.5-1.1,1.9
	c-0.8,0.4-1.9,0.7-3.4,0.7c-1.6,0-3.1-0.3-4.4-0.9c-1.3-0.6-2.5-1.5-3.5-2.6l-4.2,4.2c0.9,1.1,2,2.1,3.2,2.8
	C350.6,76.7,351.9,77.3,353.4,77.7z M386.6,77.8V55h6.9v-6h-6.9V37H380v12h-6.9v6h6.9v22.8H386.6z M414.7,54.9
	c0.6,0.2,1.2,0.6,1.7,1.2l4.3-4.4c-1-1.2-2.1-2-3.2-2.5c-1.2-0.5-2.5-0.8-3.9-0.8c-3.3,0-5.7,1.1-7.3,3.4c-0.1,0.1-0.1,0.2-0.2,0.2
	v-3h-6.6v28.8h6.6v-16c0-2.5,0.6-4.3,1.8-5.5c1.2-1.2,2.7-1.7,4.6-1.7C413.3,54.5,414,54.7,414.7,54.9z M442.9,65.4
	c0,2.1-0.5,3.8-1.5,4.9c-1,1.1-2.5,1.7-4.4,1.7c-1.2,0-2.3-0.3-3.2-0.8c-0.9-0.5-1.6-1.3-2-2.2c-0.5-1-0.7-2.2-0.7-3.6V49h-6.6v16.7
	c0,2.5,0.5,4.7,1.6,6.6c1.1,1.9,2.5,3.4,4.4,4.5c1.9,1.1,4.1,1.6,6.5,1.6c2.5,0,4.7-0.5,6.5-1.6c1.9-1.1,3.3-2.5,4.4-4.4
	c1.1-1.9,1.6-4.1,1.6-6.6V49h-6.6V65.4z M466.2,55.8c1.3-0.7,2.7-1.1,4.4-1.1c1.4,0,2.7,0.2,3.9,0.8c1.2,0.5,2.2,1.3,3,2.2l4.3-4.4
	c-1.4-1.6-3-2.8-4.9-3.7c-1.9-0.9-4-1.3-6.3-1.3c-2.8,0-5.4,0.7-7.7,2c-2.3,1.3-4.1,3.1-5.4,5.4s-2,4.8-2,7.6c0,2.8,0.7,5.3,2,7.6
	c1.3,2.3,3.1,4.1,5.4,5.4c2.3,1.3,4.9,2,7.7,2c2.2,0,4.3-0.4,6.3-1.3c1.9-0.9,3.6-2.1,4.9-3.7l-4.3-4.4c-0.8,1-1.8,1.8-3,2.2
	S472,72,470.6,72c-1.6,0-3.1-0.4-4.4-1.1c-1.3-0.7-2.2-1.8-2.9-3.1c-0.7-1.3-1-2.8-1-4.5c0-1.7,0.3-3.2,1-4.5
	C464,57.6,465,56.6,466.2,55.8z M498.2,37h-6.6v12h-6.9v6h6.9v22.8h6.6V55h6.9v-6h-6.9V37z M528.9,65.4c0,2.1-0.5,3.8-1.5,4.9
	c-1,1.1-2.5,1.7-4.4,1.7c-1.2,0-2.3-0.3-3.2-0.8c-0.9-0.5-1.6-1.3-2-2.2c-0.5-1-0.7-2.2-0.7-3.6V49h-6.6v16.7c0,2.5,0.5,4.7,1.6,6.6
	c1.1,1.9,2.5,3.4,4.4,4.5c1.9,1.1,4.1,1.6,6.5,1.6c2.5,0,4.7-0.5,6.5-1.6s3.4-2.5,4.4-4.4c1.1-1.9,1.6-4.1,1.6-6.6V49h-6.6V65.4z
	 M561.4,49.1c-1.2-0.5-2.5-0.8-3.9-0.8c-3.3,0-5.7,1.1-7.3,3.4c-0.1,0.1-0.1,0.2-0.2,0.2v-3h-6.6v28.8h6.6v-16
	c0-2.5,0.6-4.3,1.8-5.5c1.2-1.2,2.7-1.7,4.6-1.7c0.8,0,1.6,0.1,2.2,0.4c0.6,0.2,1.2,0.6,1.7,1.2l4.3-4.4
	C563.6,50.5,562.5,49.7,561.4,49.1z M594.9,62.7c0,0.5,0,1-0.1,1.5c-0.1,0.5-0.2,1-0.3,1.6h-21.5c0.2,0.7,0.4,1.5,0.8,2.1
	c0.7,1.4,1.7,2.4,3.1,3.1c1.3,0.7,2.8,1.1,4.6,1.1c1.5,0,2.8-0.3,4.1-0.8c1.3-0.5,2.3-1.3,3.2-2.3l4.2,4.3c-1.4,1.6-3.1,2.9-5.1,3.7
	c-2,0.8-4.1,1.3-6.4,1.3c-2.9,0-5.5-0.6-7.8-1.9s-4.1-3.1-5.5-5.4c-1.3-2.3-2-4.8-2-7.7c0-2.8,0.7-5.4,2-7.6c1.3-2.3,3.1-4,5.4-5.4
	c2.3-1.3,4.8-2,7.5-2c2.7,0,5,0.6,7.1,1.9c2.1,1.2,3.7,2.9,4.9,5.1C594.3,57.5,594.9,59.9,594.9,62.7z M573.1,60.4h15.3
	c-0.2-0.8-0.4-1.6-0.8-2.3c-0.6-1.2-1.5-2.1-2.5-2.8c-1.1-0.6-2.5-1-4.1-1c-1.7,0-3.1,0.4-4.4,1.1c-1.2,0.7-2.2,1.7-2.9,3
	C573.5,59.1,573.3,59.7,573.1,60.4z M235.8,116.9c-1.2-0.9-2.5-1.7-3.9-2.3c-1.4-0.6-2.8-1.1-4.3-1.6c-1.4-0.5-2.7-1-3.9-1.5
	c-1.2-0.5-2.1-1.2-2.8-2c-0.7-0.8-1.1-1.8-1.1-3.1c0-1.5,0.6-2.7,1.8-3.5c1.2-0.8,2.8-1.3,4.9-1.3c1.7,0,3.2,0.3,4.5,1
	c1.3,0.7,2.5,1.7,3.8,3l4.7-4.7c-1.4-1.7-3.1-3.1-5.3-4.1c-2.2-1.1-4.6-1.6-7.4-1.6c-2.6,0-4.9,0.5-7,1.4c-2.1,0.9-3.7,2.2-5,4
	c-1.2,1.7-1.8,3.9-1.8,6.3c0,2.2,0.4,3.9,1.1,5.3c0.7,1.4,1.7,2.5,2.9,3.4c1.2,0.9,2.5,1.6,3.9,2.2c1.4,0.6,2.8,1.1,4.3,1.6
	c1.4,0.5,2.7,1,3.9,1.6c1.2,0.6,2.1,1.3,2.9,2.2c0.7,0.9,1.1,2,1.1,3.4c0,1.7-0.7,3-2.1,4c-1.4,1-3.2,1.4-5.5,1.4
	c-2.5,0-4.5-0.5-6.1-1.4c-1.6-0.9-3-2.2-4.1-3.9l-4.7,4.7c1.8,2.3,3.9,4.1,6.2,5.3c2.3,1.2,5.1,1.8,8.5,1.8c4.5,0,8.1-1.1,10.8-3.3
	c2.7-2.2,4-5.2,4-8.9c0-2.2-0.4-4.1-1.1-5.6C238,119.1,237,117.9,235.8,116.9z M264.7,125.4c0,2.1-0.5,3.8-1.5,4.9
	c-1,1.1-2.5,1.7-4.4,1.7c-1.2,0-2.3-0.3-3.2-0.8c-0.9-0.5-1.6-1.3-2-2.2c-0.5-1-0.7-2.2-0.7-3.6V109h-6.6v16.7
	c0,2.5,0.5,4.7,1.6,6.6c1.1,1.9,2.5,3.4,4.4,4.5c1.9,1.1,4.1,1.6,6.5,1.6c2.5,0,4.7-0.5,6.5-1.6c1.9-1.1,3.3-2.5,4.4-4.4
	c1.1-1.9,1.6-4.1,1.6-6.6V109h-6.6V125.4z M306.6,115.8c1.2,2.3,1.8,4.8,1.8,7.7c0,2.8-0.6,5.3-1.8,7.6c-1.2,2.3-2.9,4-5,5.4
	s-4.5,2-7,2c-2.2,0-4.2-0.5-5.9-1.4c-1.2-0.6-2.1-1.4-2.9-2.4v15.2h-6.6V109h6.6v3.2c0.8-1,1.8-1.8,3-2.4c1.7-0.9,3.7-1.4,5.8-1.4
	c2.6,0,4.9,0.7,7,2S305.4,113.5,306.6,115.8z M301.7,123.4c0-1.7-0.4-3.2-1.1-4.6c-0.7-1.3-1.7-2.3-2.9-3.1
	c-1.2-0.7-2.6-1.1-4.2-1.1c-1.6,0-3,0.4-4.3,1.1c-1.2,0.7-2.2,1.8-2.9,3.1c-0.7,1.3-1,2.8-1,4.6c0,1.7,0.3,3.2,1,4.6
	c0.7,1.3,1.6,2.4,2.9,3.1c1.2,0.7,2.7,1.1,4.3,1.1c1.6,0,3-0.4,4.2-1.1c1.2-0.7,2.2-1.8,2.9-3.1
	C301.3,126.6,301.7,125.1,301.7,123.4z M342.6,115.8c1.2,2.3,1.8,4.8,1.8,7.7c0,2.8-0.6,5.3-1.8,7.6c-1.2,2.3-2.9,4-5,5.4
	s-4.5,2-7,2c-2.2,0-4.2-0.5-5.9-1.4c-1.2-0.6-2.1-1.4-2.9-2.4v15.2h-6.6V109h6.6v3.2c0.8-1,1.8-1.8,3-2.4c1.7-0.9,3.7-1.4,5.8-1.4
	c2.6,0,4.9,0.7,7,2S341.4,113.5,342.6,115.8z M337.7,123.4c0-1.7-0.4-3.2-1.1-4.6c-0.7-1.3-1.7-2.3-2.9-3.1
	c-1.2-0.7-2.6-1.1-4.2-1.1c-1.6,0-3,0.4-4.3,1.1c-1.2,0.7-2.2,1.8-2.9,3.1c-0.7,1.3-1,2.8-1,4.6c0,1.7,0.3,3.2,1,4.6
	c0.7,1.3,1.6,2.4,2.9,3.1c1.2,0.7,2.7,1.1,4.3,1.1c1.6,0,3-0.4,4.2-1.1c1.2-0.7,2.2-1.8,2.9-3.1
	C337.3,126.6,337.7,125.1,337.7,123.4z M377.5,115.7c1.3,2.3,2,4.8,2,7.6s-0.7,5.3-2,7.6c-1.3,2.3-3.2,4.1-5.4,5.4
	c-2.3,1.3-4.8,2-7.7,2c-2.8,0-5.3-0.7-7.6-2c-2.3-1.3-4.1-3.1-5.4-5.4c-1.3-2.3-2-4.8-2-7.6s0.7-5.3,2-7.6c1.3-2.2,3.1-4,5.4-5.4
	c2.3-1.3,4.8-2,7.6-2c2.8,0,5.4,0.7,7.7,2C374.3,111.7,376.2,113.5,377.5,115.7z M372.7,123.3c0-1.7-0.4-3.2-1.1-4.4
	c-0.7-1.3-1.7-2.3-2.9-3c-1.2-0.7-2.7-1.1-4.3-1.1c-1.6,0-3,0.4-4.3,1.1c-1.3,0.7-2.2,1.8-2.9,3c-0.7,1.3-1,2.8-1,4.4s0.3,3.2,1,4.5
	c0.7,1.3,1.7,2.4,2.9,3.1c1.3,0.7,2.7,1.1,4.3,1.1c1.6,0,3.1-0.4,4.4-1.1c1.3-0.7,2.2-1.8,2.9-3.1
	C372.4,126.5,372.7,125,372.7,123.3z M404.2,109.1c-1.2-0.5-2.5-0.8-3.9-0.8c-3.3,0-5.7,1.1-7.3,3.4c-0.1,0.1-0.1,0.2-0.2,0.2v-3
	h-6.6v28.8h6.6v-16c0-2.5,0.6-4.3,1.8-5.5c1.2-1.2,2.7-1.7,4.6-1.7c0.8,0,1.6,0.1,2.2,0.4c0.6,0.2,1.2,0.6,1.7,1.2l4.3-4.4
	C406.4,110.5,405.3,109.7,404.2,109.1z M422.9,97h-6.6v12h-6.9v6h6.9v22.8h6.6V115h6.9v-6h-6.9V97z"/>
<linearGradient id="SVGID_1_" gradientUnits="userSpaceOnUse" x1="84.8984" y1="170.7" x2="84.8984" y2="-9.094947e-13">
	<stop  offset="0" style="stop-color:#0E4EB0"/>
	<stop  offset="0.1588" style="stop-color:#124EB1"/>
	<stop  offset="0.3234" style="stop-color:#1F4FB5"/>
	<stop  offset="0.4907" style="stop-color:#3351BC"/>
	<stop  offset="0.6599" style="stop-color:#5054C6"/>
	<stop  offset="0.8299" style="stop-color:#7657D2"/>
	<stop  offset="1" style="stop-color:#A35BE1"/>
</linearGradient>
<path class="st1" d="M168.3,122.1c-3.1-5.4-10.1-7.3-15.5-4.2l-27.7,16c-1.5-2.3-3.8-3.9-6.4-4.6l-42.4-11.4
	c-3.3-0.9-6.7-0.9-10-0.1l-14.9,3.7v-4.9c0-1.6-1.3-2.8-2.8-2.8H25.6c-1.6,0-2.8,1.3-2.8,2.8v2.8H2.8c-1.6,0-2.8,1.3-2.8,2.8v39.8
	c0,1.6,1.3,2.8,2.8,2.8h19.9v2.8c0,1.6,1.3,2.8,2.8,2.8h22.8c1.6,0,2.8-1.3,2.8-2.8v-3.9l3.7,1.8c2.8,1.4,5.8,2.1,8.9,2.1h42.6
	c3.5,0,6.9-0.9,10-2.7l47.8-27.6C169.5,134.4,171.4,127.5,168.3,122.1z M22.8,159.3H5.7v-34.1h17.1V159.3z M45.5,165H28.4v-45.5
	h17.1V165z M161.3,132.7l-47.8,27.6c-2.2,1.3-4.6,1.9-7.1,1.9H63.8c-2.2,0-4.4-0.5-6.4-1.5l-6.2-3.1v-30.2l16.3-4.1
	c2.3-0.6,4.8-0.6,7.1,0.1l42.4,11.4c3,0.8,4.8,3.9,4.1,6.9c-0.4,1.5-1.4,2.8-2.7,3.5c-1.3,0.8-2.8,1-4.3,0.6l-33.9-9.1
	c-1.5-0.4-3.1,0.5-3.5,2c-0.4,1.5,0.5,3.1,2,3.5l33.9,9.1c1,0.3,2,0.4,3,0.4c2,0,3.9-0.5,5.7-1.5c2.6-1.5,4.5-4,5.3-6.9
	c0.3-1.3,0.4-2.6,0.3-3.8l28.6-16.5c2.7-1.5,6.1-0.6,7.7,2.1C164.9,127.6,164,131.1,161.3,132.7z M37,162.2c1.6,0,2.8-1.3,2.8-2.8
	v-2.8c0-1.6-1.3-2.8-2.8-2.8s-2.8,1.3-2.8,2.8v2.8C34.1,160.9,35.4,162.2,37,162.2z M125.2,42.7h-10.7l-0.5-1.2l7.6-7.5
	c1.1-1.1,1.1-2.9,0-4l-12.1-12.1c-1.1-1.1-2.9-1.1-4,0l-7.5,7.6l-1.2-0.5V14.2c0-1.6-1.3-2.8-2.8-2.8H76.8c-1.6,0-2.8,1.3-2.8,2.8
	v10.7l-1.2,0.5l-7.5-7.6c-1.1-1.1-2.9-1.1-4,0L49.1,29.9c-1.1,1.1-1.1,2.9,0,4l7.6,7.5l-0.5,1.2H45.5c-1.6,0-2.8,1.3-2.8,2.8v17.1
	c0,1.6,1.3,2.8,2.8,2.8h10.7l0.5,1.2l-7.6,7.5c-0.5,0.5-0.8,1.3-0.8,2c0,0.8,0.3,1.5,0.8,2l12.1,12.1c0.5,0.5,1.3,0.8,2,0.8
	c0.8,0,1.5-0.3,2-0.8l7.5-7.6l1.2,0.5v10.7c0,1.6,1.3,2.8,2.8,2.8h17.1c1.6,0,2.8-1.3,2.8-2.8V83.2l1.2-0.5l7.5,7.6
	c1.1,1.1,2.9,1.1,4,0l12.1-12.1c0.5-0.5,0.8-1.3,0.8-2c0-0.8-0.3-1.5-0.8-2l-7.6-7.5l0.5-1.2h10.7c1.6,0,2.8-1.3,2.8-2.8V45.5
	C128,43.9,126.8,42.7,125.2,42.7z M122.3,59.7h-9.8c-1.2,0-2.3,0.8-2.7,2c-0.4,1.4-1,2.8-1.7,4.1c-0.6,1.1-0.4,2.5,0.5,3.4l7,7
	l-8.1,8.1l-7-7c-0.9-0.9-2.3-1.1-3.4-0.5c-1.3,0.7-2.7,1.3-4.1,1.7c-1.2,0.4-2,1.5-2,2.7V91H79.7v-9.8c0-1.2-0.8-2.3-2-2.7
	c-1.4-0.4-2.8-1-4.1-1.7c-1.1-0.6-2.5-0.4-3.4,0.5l-7,7l-8.1-8.1l7-7c0.9-0.9,1.1-2.3,0.5-3.4c-0.7-1.3-1.3-2.7-1.7-4.1
	c-0.4-1.2-1.5-2-2.7-2h-9.8V48.4h9.8c1.2,0,2.3-0.8,2.7-2c0.4-1.4,1-2.8,1.7-4.1c0.6-1.1,0.4-2.5-0.5-3.4l-7-7l8.1-8.1l7,7
	c0.9,0.9,2.3,1.1,3.4,0.5c1.3-0.7,2.7-1.3,4.1-1.7c1.2-0.4,2-1.5,2-2.7v-9.8H91v9.8c0,1.2,0.8,2.3,2,2.7c1.4,0.4,2.8,1,4.1,1.7
	c1.1,0.6,2.5,0.4,3.4-0.5l7-7l8.1,8.1l-7,7c-0.9,0.9-1.1,2.3-0.5,3.4c0.7,1.3,1.3,2.7,1.7,4.1c0.4,1.2,1.5,2,2.7,2h9.8V59.7z
	 M102.4,54.1c0-9.4-7.6-17.1-17.1-17.1s-17.1,7.6-17.1,17.1s7.6,17.1,17.1,17.1C94.8,71.1,102.4,63.5,102.4,54.1z M74,54.1
	c0-6.3,5.1-11.4,11.4-11.4s11.4,5.1,11.4,11.4s-5.1,11.4-11.4,11.4S74,60.3,74,54.1z M150.8,59.7h-5.7c0-33-26.7-59.7-59.7-59.7
	S25.6,26.7,25.6,59.7h-5.7c-9.4,0-17.1,7.6-17.1,17.1s7.6,17.1,17.1,17.1h14.2c1.6,0,2.8-1.3,2.8-2.8V62.6c0-1.6-1.3-2.8-2.8-2.8
	h-2.8c0-29.9,24.2-54.1,54.1-54.1s54.1,24.2,54.1,54.1h-2.8c-1.6,0-2.8,1.3-2.8,2.8V91c0,1.6,1.3,2.8,2.8,2.8h2.8v8.5
	c0,1.6-1.3,2.8-2.8,2.8h-20.4c-1.2-3.4-4.4-5.7-8-5.7h-5.7c-4.7,0-8.5,3.8-8.5,8.5s3.8,8.5,8.5,8.5h5.7c3.6,0,6.8-2.3,8-5.7h20.4
	c4.7,0,8.5-3.8,8.5-8.5v-8.5h5.7c9.4,0,17.1-7.6,17.1-17.1S160.2,59.7,150.8,59.7L150.8,59.7z M19.9,88.2c-6.3,0-11.4-5.1-11.4-11.4
	c0-6.3,5.1-11.4,11.4-11.4V88.2z M31.3,88.2h-5.7V65.4h5.7V88.2z M108.1,111h-5.7c-1.6,0-2.8-1.3-2.8-2.8c0-1.6,1.3-2.8,2.8-2.8h5.7
	c1.6,0,2.8,1.3,2.8,2.8C111,109.7,109.7,111,108.1,111z M145.1,88.2h-5.7V65.4h5.7V88.2z M150.8,88.2V65.4c6.3,0,11.4,5.1,11.4,11.4
	C162.2,83.1,157.1,88.2,150.8,88.2z"/>
</svg>
