<?xml version="1.0" encoding="utf-8"?>
<!-- Generator: Adobe Illustrator 27.0.0, SVG Export Plug-In . SVG Version: 6.00 Build 0)  -->
<svg version="1.1" id="MicrosoftApplication" xmlns="http://www.w3.org/2000/svg" xmlns:xlink="http://www.w3.org/1999/xlink"
	 x="0px" y="0px" viewBox="0 0 711.9 170.7" style="enable-background:new 0 0 711.9 170.7;" xml:space="preserve">
<style type="text/css">
	.st0{fill:#657085;}
	.st1{fill:url(#SVGID_1_);}
</style>
<path class="st0" d="M251.9,80.6l4.4-4.4l-6.5-6.5c1-1.4,1.9-2.9,2.5-4.5c1.1-2.6,1.7-5.4,1.7-8.4s-0.6-5.8-1.7-8.4
	c-1.1-2.6-2.6-4.9-4.6-6.9c-2-2-4.2-3.5-6.8-4.6c-2.6-1.1-5.4-1.6-8.4-1.6s-5.8,0.6-8.4,1.6c-2.6,1.1-4.8,2.6-6.8,4.6
	c-1.9,2-3.5,4.3-4.6,6.9c-1.1,2.6-1.6,5.4-1.6,8.4s0.5,5.8,1.6,8.4c1.1,2.6,2.6,4.9,4.6,6.9c2,2,4.2,3.5,6.8,4.7
	c2.6,1.1,5.4,1.7,8.4,1.7c3,0,5.7-0.6,8.3-1.7c1.6-0.7,3-1.6,4.4-2.6L251.9,80.6z M240,69.8c-2.1,1.3-4.6,1.9-7.5,1.9
	c-2.1,0-4-0.4-5.8-1.1c-1.8-0.7-3.3-1.8-4.5-3.1c-1.3-1.3-2.2-2.9-2.9-4.8c-0.7-1.9-1-3.9-1-6.1c0-3,0.6-5.6,1.8-7.8
	c1.2-2.2,2.9-4,5-5.2c2.1-1.3,4.6-1.9,7.4-1.9c2.1,0,4.1,0.4,5.8,1.1c1.7,0.7,3.2,1.8,4.5,3.1c1.3,1.3,2.3,2.9,3,4.7
	c0.7,1.8,1.1,3.8,1.1,6c0,3-0.6,5.6-1.8,7.8c0,0.1-0.1,0.2-0.2,0.3l-7.5-7.5l-4.4,4.4l7.7,7.7C240.4,69.6,240.3,69.7,240,69.8z
	 M281.2,76.8c-1.9,1.1-4.1,1.6-6.5,1.6c-2.4,0-4.6-0.5-6.5-1.6c-1.9-1.1-3.4-2.6-4.4-4.5c-1.1-1.9-1.6-4.1-1.6-6.6V49h6.6v16.4
	c0,1.4,0.2,2.6,0.7,3.6c0.5,1,1.1,1.7,2,2.2c0.9,0.5,2,0.8,3.2,0.8c1.9,0,3.4-0.6,4.4-1.7c1-1.1,1.5-2.8,1.5-4.9V49h6.6v16.7
	c0,2.5-0.5,4.7-1.6,6.6C284.5,74.2,283,75.7,281.2,76.8z M300,76.4c2.1,1.3,4.4,2,7.1,2c2.2,0,4.2-0.5,5.9-1.4
	c1.2-0.6,2.1-1.4,2.9-2.4v3.2h6.6V49h-6.6v3.2c-0.8-1-1.8-1.8-3-2.4c-1.7-0.9-3.7-1.4-5.8-1.4c-2.6,0-5,0.7-7.1,2s-3.8,3.1-5,5.4
	c-1.2,2.3-1.8,4.8-1.8,7.7c0,2.8,0.6,5.3,1.8,7.6C296.3,73.3,297.9,75.1,300,76.4z M301.1,58.8c0.7-1.3,1.7-2.3,2.9-3.1
	c1.2-0.7,2.6-1.1,4.2-1.1c1.6,0,3.1,0.4,4.3,1.1c1.2,0.7,2.2,1.8,2.9,3.1c0.7,1.3,1,2.8,1,4.6c0,2.6-0.8,4.7-2.2,6.3
	c-1.5,1.6-3.5,2.5-5.9,2.5c-1.6,0-3-0.4-4.2-1.1c-1.2-0.7-2.2-1.8-2.9-3.1c-0.7-1.3-1-2.8-1-4.6C300,61.6,300.4,60.1,301.1,58.8z
	 M337.6,77.8H331V34.6h6.6V77.8z M346.7,42.5c-0.7-0.8-1.1-1.7-1.1-2.8c0-1.1,0.4-2.1,1.1-2.8c0.7-0.8,1.7-1.1,2.8-1.1
	c1.2,0,2.1,0.4,2.8,1.1c0.7,0.8,1.1,1.7,1.1,2.8c0,1.1-0.4,2.1-1.1,2.8c-0.7,0.8-1.7,1.1-2.8,1.1C348.4,43.7,347.5,43.3,346.7,42.5z
	 M352.8,77.8h-6.6V49h6.6V77.8z M372.4,49h6.9v6h-6.9v22.8h-6.6V55h-6.9v-6h6.9V37h6.6V49z M404.7,49h7.3l-13.4,29.1l-5.3,11.7H386
	l7.2-14.9L382.3,49h7.3l7.4,18.8L404.7,49z M445.8,35.8l-17.3,42h7.3l3.2-8.1h18.1l3.2,8.1h7.4l-17.2-42H445.8z M441.5,63.7
	l6.7-16.7l6.6,16.7H441.5z M479.5,56.7c0,0.8,0.4,1.4,1.1,1.9c0.7,0.4,1.7,0.8,2.8,1.1s2.3,0.7,3.6,1c1.3,0.4,2.5,0.9,3.6,1.6
	c1.1,0.7,2.1,1.5,2.8,2.6c0.7,1.1,1.1,2.5,1.1,4.3c0,2.8-1,5-2.9,6.7c-2,1.6-4.6,2.5-8,2.5c-1.6,0-3.1-0.2-4.6-0.6
	c-1.5-0.4-2.8-1-4.1-1.8c-1.2-0.8-2.3-1.7-3.2-2.8l4.2-4.2c1,1.2,2.2,2,3.5,2.6c1.3,0.6,2.8,0.9,4.4,0.9c1.5,0,2.6-0.2,3.4-0.7
	s1.1-1.1,1.1-1.9c0-0.9-0.4-1.6-1.1-2c-0.7-0.5-1.7-0.9-2.8-1.2c-1.1-0.3-2.3-0.7-3.6-1c-1.3-0.4-2.5-0.8-3.6-1.5
	c-1.1-0.6-2.1-1.5-2.8-2.6c-0.7-1.1-1.1-2.5-1.1-4.2c0-1.8,0.4-3.4,1.3-4.7c0.9-1.3,2.1-2.3,3.7-3.1c1.6-0.7,3.5-1.1,5.7-1.1
	c2.3,0,4.4,0.4,6.1,1.2c1.8,0.8,3.3,2,4.5,3.7l-4.2,4.2c-0.8-1-1.8-1.8-2.9-2.3c-1.1-0.5-2.3-0.8-3.7-0.8c-1.3,0-2.3,0.2-3.1,0.6
	C479.8,55.4,479.5,55.9,479.5,56.7z M506.5,56.7c0,0.8,0.4,1.4,1.1,1.9c0.7,0.4,1.7,0.8,2.8,1.1s2.3,0.7,3.6,1
	c1.3,0.4,2.5,0.9,3.6,1.6c1.1,0.7,2.1,1.5,2.8,2.6c0.7,1.1,1.1,2.5,1.1,4.3c0,2.8-1,5-2.9,6.7c-2,1.6-4.6,2.5-8,2.5
	c-1.6,0-3.1-0.2-4.6-0.6c-1.5-0.4-2.8-1-4.1-1.8c-1.2-0.8-2.3-1.7-3.2-2.8l4.2-4.2c1,1.2,2.2,2,3.5,2.6c1.3,0.6,2.8,0.9,4.4,0.9
	c1.5,0,2.6-0.2,3.4-0.7c0.8-0.4,1.1-1.1,1.1-1.9c0-0.9-0.4-1.6-1.1-2c-0.7-0.5-1.6-0.9-2.8-1.2c-1.1-0.3-2.3-0.7-3.6-1
	c-1.3-0.4-2.5-0.8-3.6-1.5c-1.1-0.6-2.1-1.5-2.8-2.6c-0.7-1.1-1.1-2.5-1.1-4.2c0-1.8,0.4-3.4,1.3-4.7c0.9-1.3,2.1-2.3,3.7-3.1
	c1.6-0.7,3.5-1.1,5.7-1.1c2.3,0,4.4,0.4,6.1,1.2c1.8,0.8,3.3,2,4.5,3.7l-4.2,4.2c-0.8-1-1.8-1.8-2.9-2.3c-1.1-0.5-2.3-0.8-3.7-0.8
	c-1.3,0-2.3,0.2-3.1,0.6C506.8,55.4,506.5,55.9,506.5,56.7z M545.8,49h6.6v16.7c0,2.5-0.5,4.7-1.6,6.6c-1.1,1.9-2.5,3.4-4.4,4.4
	s-4.1,1.6-6.5,1.6c-2.4,0-4.6-0.5-6.5-1.6c-1.9-1.1-3.4-2.6-4.4-4.5c-1.1-1.9-1.6-4.1-1.6-6.6V49h6.6v16.4c0,1.4,0.2,2.6,0.7,3.6
	c0.5,1,1.1,1.7,2,2.2c0.9,0.5,2,0.8,3.2,0.8c1.9,0,3.4-0.6,4.4-1.7c1-1.1,1.5-2.8,1.5-4.9V49z M581.5,51.7l-4.3,4.4
	c-0.5-0.6-1.1-1-1.7-1.2c-0.6-0.2-1.4-0.4-2.2-0.4c-1.8,0-3.4,0.6-4.6,1.7c-1.2,1.2-1.8,3-1.8,5.5v16h-6.6V49h6.6v3
	c0.1-0.1,0.1-0.2,0.2-0.2c1.6-2.3,4.1-3.4,7.3-3.4c1.4,0,2.7,0.3,3.9,0.8C579.4,49.7,580.5,50.5,581.5,51.7z M605.9,52.2
	c-0.8-1-1.8-1.8-3-2.4c-1.7-0.9-3.7-1.4-5.9-1.4c-2.6,0-5,0.7-7,2s-3.8,3.1-5,5.4c-1.2,2.3-1.8,4.8-1.8,7.7c0,2.8,0.6,5.3,1.8,7.6
	c1.2,2.3,2.9,4,5,5.4s4.4,2,7,2c2.2,0,4.2-0.5,5.9-1.4c1.2-0.6,2.1-1.4,2.9-2.4v3.2h6.6V49h-6.6V52.2z M604.1,69.7
	c-1.5,1.6-3.5,2.5-5.9,2.5c-1.6,0-3-0.4-4.2-1.1c-1.2-0.7-2.2-1.8-2.9-3.1c-0.7-1.3-1.1-2.8-1.1-4.6c0-1.7,0.3-3.2,1.1-4.6
	c0.7-1.3,1.7-2.3,2.9-3.1c1.2-0.7,2.6-1.1,4.2-1.1c1.6,0,3.1,0.4,4.3,1.1c1.2,0.7,2.2,1.8,2.9,3.1c0.7,1.3,1,2.8,1,4.6
	C606.4,65.9,605.6,68,604.1,69.7z M646,54.3c1,1.7,1.4,3.6,1.4,5.4v18.1h-6.6V61.1c0-1.9-0.6-3.5-1.8-4.7c-1.2-1.2-2.8-1.9-4.7-1.9
	c-1.3,0-2.4,0.3-3.4,0.8c-1,0.6-1.8,1.3-2.3,2.3c-0.6,1-0.8,2.1-0.8,3.4v16.6h-6.6V49h6.6v3.3c0.8-1,1.7-1.8,2.9-2.4
	c1.7-1,3.6-1.5,5.7-1.5c2.2,0,4.1,0.6,5.8,1.7C643.7,51.1,645,52.5,646,54.3z M661.3,58.9c-0.7,1.3-1,2.8-1,4.5c0,1.7,0.3,3.2,1,4.5
	c0.7,1.3,1.7,2.3,2.9,3.1c1.3,0.7,2.7,1.1,4.3,1.1c1.4,0,2.7-0.2,3.9-0.8c1.2-0.5,2.2-1.2,3-2.2l4.3,4.4c-1.4,1.6-3,2.8-4.9,3.7
	c-1.9,0.9-4,1.3-6.3,1.3c-2.8,0-5.4-0.7-7.7-2c-2.3-1.3-4.1-3.1-5.4-5.4c-1.3-2.3-2-4.8-2-7.6c0-2.8,0.7-5.4,2-7.6
	c1.3-2.3,3.1-4,5.4-5.4c2.3-1.3,4.9-2,7.7-2c2.2,0,4.3,0.4,6.3,1.3c1.9,0.9,3.6,2.1,4.9,3.7l-4.3,4.4c-0.8-1-1.9-1.7-3-2.2
	c-1.2-0.5-2.5-0.8-3.9-0.8c-1.6,0-3.1,0.4-4.3,1.1C663,56.6,662,57.6,661.3,58.9z M710.1,55.3c-1.2-2.2-2.8-3.9-4.9-5.1
	c-2.1-1.2-4.4-1.9-7.1-1.9c-2.8,0-5.3,0.7-7.5,2c-2.3,1.3-4.1,3.1-5.4,5.4c-1.3,2.3-2,4.8-2,7.6c0,2.8,0.7,5.4,2,7.7
	c1.3,2.3,3.2,4.1,5.5,5.4s4.9,1.9,7.8,1.9c2.2,0,4.4-0.4,6.4-1.3c2-0.8,3.7-2.1,5.1-3.7l-4.2-4.3c-0.9,1-2,1.8-3.2,2.3
	c-1.3,0.5-2.6,0.8-4.1,0.8c-1.7,0-3.2-0.4-4.6-1.1c-1.3-0.7-2.3-1.8-3.1-3.1c-0.3-0.6-0.6-1.4-0.8-2.1h21.5c0.1-0.6,0.2-1.1,0.3-1.6
	c0.1-0.5,0.1-1,0.1-1.5C711.9,59.9,711.3,57.5,710.1,55.3z M690.8,58.5c0.7-1.3,1.6-2.3,2.9-3c1.2-0.7,2.7-1.1,4.4-1.1
	c1.6,0,3,0.3,4.1,1c1.1,0.6,1.9,1.6,2.5,2.8c0.3,0.7,0.6,1.4,0.8,2.3h-15.3C690.3,59.7,690.5,59.1,690.8,58.5z M238.7,120.5
	c0.7,1.5,1.1,3.3,1.1,5.6c0,3.8-1.3,6.7-4,8.9c-2.7,2.2-6.2,3.3-10.8,3.3c-3.3,0-6.1-0.6-8.5-1.8c-2.3-1.2-4.4-3-6.2-5.3l4.7-4.7
	c1.2,1.7,2.5,3,4.1,3.9c1.6,0.9,3.6,1.4,6.1,1.4c2.3,0,4.2-0.5,5.5-1.4c1.4-1,2.1-2.3,2.1-4c0-1.4-0.4-2.5-1.1-3.4
	c-0.7-0.9-1.7-1.6-2.9-2.2c-1.2-0.6-2.5-1.1-3.9-1.6c-1.4-0.5-2.8-1-4.3-1.6c-1.4-0.6-2.7-1.3-3.9-2.2c-1.2-0.9-2.1-2-2.9-3.4
	c-0.7-1.4-1.1-3.2-1.1-5.3c0-2.5,0.6-4.6,1.8-6.3c1.2-1.7,2.9-3.1,5-4c2.1-0.9,4.4-1.4,7-1.4c2.8,0,5.2,0.5,7.4,1.6
	c2.2,1.1,3.9,2.5,5.3,4.1l-4.7,4.7c-1.2-1.4-2.5-2.4-3.8-3c-1.3-0.7-2.8-1-4.5-1c-2.1,0-3.7,0.4-4.9,1.3c-1.2,0.8-1.8,2-1.8,3.5
	c0,1.3,0.4,2.3,1.1,3.1c0.7,0.8,1.7,1.4,2.8,2c1.2,0.5,2.5,1,3.9,1.5c1.4,0.5,2.8,1,4.3,1.6c1.4,0.6,2.7,1.4,3.9,2.3
	C237,117.9,238,119.1,238.7,120.5z M266.7,110.2c-2.1-1.2-4.4-1.9-7.1-1.9c-2.8,0-5.3,0.7-7.5,2c-2.3,1.3-4,3.1-5.4,5.4
	c-1.3,2.3-2,4.8-2,7.6c0,2.8,0.7,5.4,2,7.7c1.3,2.3,3.2,4.1,5.5,5.4c2.3,1.3,4.9,1.9,7.8,1.9c2.2,0,4.4-0.4,6.4-1.3
	c2-0.8,3.7-2.1,5.1-3.7l-4.2-4.3c-0.9,1-1.9,1.8-3.2,2.3c-1.3,0.5-2.6,0.8-4.1,0.8c-1.7,0-3.2-0.4-4.6-1.1c-1.3-0.7-2.3-1.8-3.1-3.1
	c-0.3-0.6-0.6-1.4-0.8-2.1H273c0.1-0.6,0.2-1.1,0.3-1.6s0.1-1,0.1-1.5c0-2.8-0.6-5.2-1.8-7.4C270.4,113.2,268.8,111.5,266.7,110.2z
	 M252.2,118.5c0.7-1.3,1.6-2.3,2.9-3c1.2-0.7,2.7-1.1,4.4-1.1c1.6,0,2.9,0.3,4,1c1.1,0.6,2,1.6,2.6,2.8c0.3,0.7,0.6,1.4,0.8,2.3
	h-15.3C251.7,119.7,251.9,119.1,252.2,118.5z M301.1,111.7l-4.3,4.4c-0.5-0.6-1.1-1-1.7-1.2c-0.6-0.2-1.4-0.4-2.2-0.4
	c-1.8,0-3.4,0.6-4.6,1.7c-1.2,1.2-1.8,3-1.8,5.5v16h-6.6V109h6.6v3c0.1-0.1,0.1-0.2,0.2-0.2c1.6-2.3,4.1-3.4,7.3-3.4
	c1.4,0,2.7,0.3,3.9,0.8C299,109.7,300.1,110.5,301.1,111.7z M324.8,109h7l-13.1,28.8h-3.8L301.7,109h7.3l7.9,18.4L324.8,109z
	 M343.1,96.9c0.7,0.8,1.1,1.7,1.1,2.8c0,1.1-0.4,2.1-1.1,2.8c-0.7,0.8-1.7,1.1-2.8,1.1c-1.1,0-2.1-0.4-2.8-1.1
	c-0.7-0.8-1.1-1.7-1.1-2.8c0-1.1,0.4-2.1,1.1-2.8c0.7-0.8,1.7-1.1,2.8-1.1C341.4,95.8,342.4,96.1,343.1,96.9z M337,109h6.6v28.8H337
	V109z M358.1,118.9c-0.7,1.3-1,2.8-1,4.5c0,1.7,0.3,3.2,1,4.5c0.7,1.3,1.7,2.3,2.9,3.1c1.3,0.7,2.7,1.1,4.4,1.1
	c1.4,0,2.7-0.2,3.9-0.8c1.2-0.5,2.2-1.2,3-2.2l4.3,4.4c-1.4,1.6-3,2.8-5,3.7c-1.9,0.9-4,1.3-6.3,1.3c-2.8,0-5.4-0.7-7.7-2
	c-2.3-1.3-4.1-3.1-5.4-5.4c-1.3-2.3-2-4.8-2-7.6c0-2.8,0.7-5.4,2-7.6c1.3-2.3,3.1-4,5.4-5.4c2.3-1.3,4.9-2,7.7-2
	c2.2,0,4.3,0.4,6.3,1.3c1.9,0.9,3.6,2.1,5,3.7l-4.3,4.4c-0.8-1-1.9-1.7-3-2.2c-1.2-0.5-2.5-0.8-3.9-0.8c-1.6,0-3.1,0.4-4.4,1.1
	C359.8,116.6,358.8,117.6,358.1,118.9z M402.1,110.2c-2.1-1.2-4.4-1.9-7.1-1.9c-2.8,0-5.3,0.7-7.5,2c-2.3,1.3-4,3.1-5.4,5.4
	c-1.3,2.3-2,4.8-2,7.6c0,2.8,0.7,5.4,2,7.7c1.3,2.3,3.2,4.1,5.5,5.4c2.3,1.3,4.9,1.9,7.8,1.9c2.2,0,4.4-0.4,6.4-1.3
	c2-0.8,3.7-2.1,5.1-3.7l-4.2-4.3c-0.9,1-1.9,1.8-3.2,2.3c-1.3,0.5-2.6,0.8-4.1,0.8c-1.7,0-3.2-0.4-4.6-1.1c-1.3-0.7-2.3-1.8-3.1-3.1
	c-0.3-0.6-0.6-1.4-0.8-2.1h21.5c0.1-0.6,0.2-1.1,0.3-1.6s0.1-1,0.1-1.5c0-2.8-0.6-5.2-1.8-7.4C405.8,113.2,404.2,111.5,402.1,110.2z
	 M387.6,118.5c0.7-1.3,1.6-2.3,2.9-3c1.2-0.7,2.7-1.1,4.4-1.1c1.6,0,2.9,0.3,4,1c1.1,0.6,2,1.6,2.6,2.8c0.3,0.7,0.6,1.4,0.8,2.3
	h-15.3C387.1,119.7,387.3,119.1,387.6,118.5z M420.6,116.7c0,0.8,0.4,1.4,1.1,1.9c0.7,0.4,1.6,0.8,2.8,1.1c1.1,0.3,2.3,0.7,3.6,1
	c1.3,0.4,2.5,0.9,3.6,1.6c1.1,0.7,2.1,1.5,2.8,2.6c0.7,1.1,1.1,2.5,1.1,4.3c0,2.8-1,5-2.9,6.7c-2,1.6-4.6,2.5-8,2.5
	c-1.6,0-3.1-0.2-4.6-0.6c-1.5-0.4-2.8-1-4.1-1.8c-1.2-0.8-2.3-1.7-3.2-2.8l4.2-4.2c1,1.2,2.1,2,3.5,2.6c1.3,0.6,2.8,0.9,4.4,0.9
	c1.5,0,2.6-0.2,3.4-0.7c0.8-0.4,1.1-1.1,1.1-1.9c0-0.9-0.4-1.6-1.1-2c-0.7-0.5-1.6-0.9-2.8-1.2s-2.3-0.7-3.6-1
	c-1.3-0.4-2.5-0.8-3.6-1.5c-1.1-0.6-2.1-1.5-2.8-2.6c-0.7-1.1-1.1-2.5-1.1-4.2c0-1.8,0.4-3.4,1.3-4.7c0.9-1.3,2.1-2.3,3.7-3.1
	c1.6-0.7,3.5-1.1,5.7-1.1c2.3,0,4.4,0.4,6.1,1.2c1.8,0.8,3.3,2,4.5,3.7l-4.2,4.2c-0.8-1-1.8-1.8-2.9-2.3c-1.1-0.5-2.3-0.8-3.7-0.8
	c-1.3,0-2.3,0.2-3.1,0.6C421,115.4,420.6,115.9,420.6,116.7z"/>
<linearGradient id="SVGID_1_" gradientUnits="userSpaceOnUse" x1="79.8748" y1="170.7" x2="79.8748" y2="-9.094947e-13">
	<stop  offset="0" style="stop-color:#0E4EB0"/>
	<stop  offset="0.1588" style="stop-color:#124EB1"/>
	<stop  offset="0.3234" style="stop-color:#1F4FB5"/>
	<stop  offset="0.4907" style="stop-color:#3351BC"/>
	<stop  offset="0.6599" style="stop-color:#5054C6"/>
	<stop  offset="0.8299" style="stop-color:#7657D2"/>
	<stop  offset="1" style="stop-color:#A35BE1"/>
</linearGradient>
<path class="st1" d="M46,140.6l-10.2-1.4l-4.5-9.3c-0.5-1-1.4-1.7-2.6-1.7c-1.2,0-2.1,0.7-2.6,1.7l-4.5,9.3l-10.2,1.4
	c-1.2,0.2-2.1,1-2.4,2.1c-0.2,1.2,0,2.1,0.7,3.1l7.4,7.2l-1.7,10c-0.2,1.2,0.2,2.1,1.2,2.9c0.5,0.5,1.2,0.5,1.7,0.5
	c0.5,0,1,0,1.4-0.2l9.1-4.8l9.1,4.8c1,0.5,2.1,0.5,3.1-0.2c1-0.7,1.4-1.9,1.2-2.9l-1.7-10l7.4-7.2c0.7-0.7,1.2-1.9,0.7-3.1
	C48.1,141.5,47.2,140.6,46,140.6z M35,149.6c-0.7,0.7-1,1.7-1,2.6l1,5.7l-5.2-2.6c-0.5-0.2-1-0.2-1.4-0.2c-0.5,0-1,0-1.4,0.2l-5,2.6
	l1-5.7c0.2-1-0.2-1.9-1-2.6l-4.1-4.1l5.7-1c1-0.2,1.9-0.7,2.1-1.7l2.6-5.2L31,143c0.5,1,1.2,1.4,2.1,1.7l5.7,1L35,149.6z
	 M101.8,139.6l-13.1-1.9l-5.7-11.9c-0.5-1-1.4-1.7-2.6-1.7s-2.1,0.7-2.6,1.7l-6,11.9l-13.1,1.9c-1.2,0.2-2.1,1-2.4,2.1
	c-0.2,1.2,0,2.1,0.7,3.1l9.5,9.3l-2.1,13.1c-0.2,1.2,0.2,2.1,1.2,2.9c0.5,0.5,1.2,0.5,1.7,0.5s1,0,1.4-0.2l11.7-6.2l11.7,6.2
	c1,0.5,2.1,0.5,3.1-0.2c1-0.7,1.4-1.9,1.2-2.9l-2.1-13.1l9.5-9.3c0.7-0.7,1.2-1.9,0.7-3.1C103.9,140.6,103,139.6,101.8,139.6z
	 M88.7,150.6c-0.7,0.7-1,1.7-1,2.6l1.4,8.6l-7.6-4.1c-0.5-0.2-1-0.2-1.4-0.2c-0.5,0-1,0-1.4,0.2l-7.6,4.1l1.4-8.6
	c0.2-1-0.2-1.9-1-2.6l-6.2-6.2l8.6-1.2c1-0.2,1.9-0.7,2.1-1.7l3.8-7.9l3.8,7.9c0.5,1,1.2,1.4,2.1,1.7l8.6,1.2L88.7,150.6z
	 M149,140.6l-10.2-1.4l-4.5-9.3c-0.5-1-1.4-1.7-2.6-1.7c-1.2,0-2.1,0.7-2.6,1.7l-4.5,9.3l-10.2,1.4c-1.2,0.2-2.1,1-2.4,2.1
	c-0.2,1.2,0,2.1,0.7,3.1l7.4,7.2l-1.7,10c-0.2,1.2,0.2,2.1,1.2,2.9c1,0.7,2.1,0.7,3.1,0.2l9.1-4.8l9.1,4.8c0.5,0.2,1,0.2,1.4,0.2
	c0.7,0,1.2-0.2,1.7-0.5c1-0.7,1.4-1.9,1.2-2.9l-1.7-10l7.4-7.2c0.7-0.7,1.2-1.9,0.7-3.1C151.1,141.5,150.2,140.6,149,140.6z
	 M138,149.6c-0.7,0.7-1,1.7-1,2.6l1,5.7l-5.2-2.6c-0.5-0.2-1-0.2-1.4-0.2c-0.5,0-1,0-1.4,0.2l-4.8,2.6l1-5.7c0.2-1-0.2-1.9-1-2.6
	l-4.1-4.1l5.7-1c1-0.2,1.9-0.7,2.1-1.7l2.6-5.2l2.6,5.2c0.5,1,1.2,1.4,2.1,1.7l5.7,1L138,149.6z M14.8,126.3
	C-10.7,90.3-2.4,40.5,33.6,15C51,2.6,72.2-2.4,93.2,1.1c21,3.6,39.3,15,51.7,32.4c19.8,27.7,19.8,65.1,0,92.7c-1.2,1.7-3.3,2.1-5,1
	c-1.7-1.2-2.1-3.3-1-5c17.9-25.3,17.9-59.1,0-84.4c-11.2-16-28.1-26.5-47.2-29.6C72.7,4.9,53.4,9.5,37.6,20.7
	C5,43.8-2.6,89.3,20.7,122c1,1.7,0.7,3.8-1,5c-0.7,0.5-1.4,0.7-2.1,0.7C16.7,127.7,15.5,127.2,14.8,126.3z M113.2,96.7h-0.5
	c1.2-1.2,2.1-2.9,2.1-4.8v-4.8c2.1-1.2,3.6-3.1,3.6-5.7v-4.8c2.1-1.2,3.6-3.1,3.6-5.7v-4.3c0-3.6-2.9-6.4-6.4-6.4H92.7
	c1-12.2-0.7-17.6-1.2-18.8c-1.4-5-3.6-8.3-6.4-10c-2.1-1.2-4.3-1.4-6.7-0.7c-3.3,1-5.5,3.8-5.7,7.2c-0.5,13.1-5.2,21.5-8.3,25.3
	c-1.2-1-2.9-1.7-4.5-1.7H45.5c-4.1,0-7.4,3.3-7.4,7.2v31.7c0,4.1,3.3,7.2,7.4,7.2h14.3c1.7,0,3.1-0.7,4.5-1.7c1.4,1,2.9,1.7,4.3,2.1
	c1,0.5,2.1,0.7,3.3,0.7h34.8c3.6,0,6.4-2.9,6.4-6.4V96.7z M60.8,100.5c0,0.7-0.5,1.2-1.2,1.2H45.3c-0.7,0-1.4-0.5-1.4-1.2V68.8
	c0-0.7,0.5-1.2,1.4-1.2h14.3c0.7,0,1.2,0.5,1.2,1.2V100.5z M112.3,81.5c0,0.2-0.2,0.5-0.5,0.5h-10c-1.7,0-2.9,1.4-2.9,2.9
	c0,1.4,1.4,3.1,2.9,3.1h6.9v4.1c0,0.2-0.2,0.5-0.5,0.5h-10c-1.7,0-2.9,1.4-2.9,2.9c0,1.4,1.4,2.9,2.9,2.9h8.3v4.1
	c0.2,0.5,0,0.7-0.2,0.7H71.5c-0.5,0-0.7,0-1.2-0.2c-2.4-1-3.3-1.7-3.8-1.9c0-0.2,0-0.2,0-0.5V69.1c2.9-3.1,10.7-12.9,11.4-31
	c0-0.7,0.5-1.4,1.2-1.7c1.2-0.2,1.9,0,2.1,0.2c0.7,0.5,2.4,1.9,3.6,6.7c0,0,0,0.2,0.2,0.5c0,0,1.9,5.2,0.5,19.3c0,1,0.2,1.7,0.7,2.4
	c0.5,0.7,1.4,1,2.1,1h26.2c1,0,1,0,1,0.5v4.3c0,0.2-0.2,0.5-0.5,0.5h-13.3c-1.7,0-2.9,1.4-2.9,2.9c0,1.4,1.4,2.9,2.9,2.9h10.5V81.5z
	"/>
</svg>
